BowlbyOneSC-Regular.ufo
<glyph name="percent" format="1">
  <advance width="2152"/>
  <unicode hex="0025"/>
  <outline>
    <contour>
      <point x="18" y="1020" type="curve" smooth="yes"/>
      <point x="18" y="1299.27"/>
      <point x="186.624" y="1532"/>
      <point x="480" y="1532" type="curve" smooth="yes"/>
      <point x="824" y="1532"/>
      <point x="912" y="1282"/>
      <point x="912" y="1056" type="curve" smooth="yes"/>
      <point x="912" y="776"/>
      <point x="804" y="520"/>
      <point x="452" y="520" type="curve" smooth="yes"/>
      <point x="94" y="520"/>
      <point x="18" y="780"/>
    </contour>
    <contour>
      <point x="366" y="1020" type="curve" smooth="yes"/>
      <point x="366" y="946"/>
      <point x="362" y="752"/>
      <point x="474" y="752" type="curve" smooth="yes"/>
      <point x="564" y="752"/>
      <point x="564" y="884"/>
      <point x="564" y="944" type="curve" smooth="yes"/>
      <point x="564" y="1108" type="line" smooth="yes"/>
      <point x="564" y="1192"/>
      <point x="558" y="1296"/>
      <point x="472" y="1296" type="curve" smooth="no"/>
      <point x="364" y="1290"/>
      <point x="366" y="1106"/>
    </contour>
    <contour>
      <point x="528" y="-14" type="line" smooth="no"/>
      <point x="795.368" y="473.298"/>
      <point x="1061.73" y="961.606"/>
      <point x="1330" y="1448" type="curve" smooth="no"/>
      <point x="1376" y="1530" type="line" smooth="no"/>
      <point x="1382" y="1536"/>
      <point x="1386" y="1542"/>
      <point x="1392" y="1544" type="curve" smooth="no"/>
      <point x="1456" y="1544" type="line" smooth="yes"/>
      <point x="1534" y="1544"/>
      <point x="1620" y="1538"/>
      <point x="1620" y="1536" type="curve" smooth="yes"/>
      <point x="1526.93" y="1357.07"/>
      <point x="1435.75" y="1176.25"/>
      <point x="1344" y="996" type="curve" smooth="no"/>
      <point x="1153.17" y="656.16"/>
      <point x="978.919" y="299.748"/>
      <point x="808" y="-60" type="curve" smooth="yes"/>
      <point x="798" y="-82"/>
      <point x="744" y="-88"/>
      <point x="680" y="-88" type="curve" smooth="yes"/>
      <point x="632" y="-88"/>
      <point x="588" y="-84"/>
      <point x="556" y="-84" type="curve" smooth="no"/>
    </contour>
    <contour>
      <point x="1236" y="460" type="line" smooth="no"/>
      <point x="1257.05" y="733.705"/>
      <point x="1393.64" y="958"/>
      <point x="1688" y="958" type="curve" smooth="yes"/>
      <point x="1896" y="958"/>
      <point x="2136" y="846"/>
      <point x="2136" y="456" type="curve" smooth="yes"/>
      <point x="2136" y="112"/>
      <point x="1932" y="-60"/>
      <point x="1670" y="-60" type="curve" smooth="yes"/>
      <point x="1306" y="-60"/>
      <point x="1236" y="212"/>
      <point x="1236" y="434" type="curve" smooth="yes"/>
    </contour>
    <contour>
      <point x="1582" y="412" type="line" smooth="yes"/>
      <point x="1582" y="324"/>
      <point x="1590" y="174"/>
      <point x="1692" y="174" type="curve" smooth="yes"/>
      <point x="1774" y="174"/>
      <point x="1786" y="280"/>
      <point x="1786" y="356" type="curve" smooth="yes"/>
      <point x="1786" y="394"/>
      <point x="1784" y="434"/>
      <point x="1784" y="472" type="curve" smooth="yes"/>
      <point x="1784" y="498" type="line" smooth="no"/>
      <point x="1786" y="508"/>
      <point x="1786" y="518"/>
      <point x="1786" y="532" type="curve" smooth="yes"/>
      <point x="1786" y="608"/>
      <point x="1770" y="716"/>
      <point x="1686" y="716" type="curve" smooth="no"/>
      <point x="1686" y="716" type="line" smooth="no"/>
      <point x="1582" y="716"/>
      <point x="1582" y="524"/>
      <point x="1582" y="446" type="curve" smooth="yes"/>
    </contour>
  </outline>
</glyph>
<glyph name="ampersand" format="1">
  <advance width="1814"/>
  <unicode hex="0026"/>
  <outline>
    <contour>
      <point x="1476" y="-32" type="line" smooth="yes"/>
      <point x="1321.65" y="-32"/>
      <point x="1256.75" y="-18.2626"/>
      <point x="1172" y="40" type="curve" smooth="no"/>
      <point x="1132" y="40" type="line" smooth="no"/>
      <point x="1026" y="-8"/>
      <point x="906" y="-58"/>
      <point x="784" y="-68" type="curve" smooth="no"/>
      <point x="696" y="-68" type="line" smooth="yes"/>
      <point x="296" y="-68"/>
      <point x="16" y="122"/>
      <point x="16" y="376" type="curve" smooth="yes"/>
      <point x="16" y="596"/>
      <point x="172" y="728"/>
      <point x="376" y="804" type="curve" smooth="no"/>
      <point x="260" y="878"/>
      <point x="164" y="1010"/>
      <point x="164" y="1148" type="curve" smooth="yes"/>
      <point x="164" y="1414.63"/>
      <point x="416.695" y="1532"/>
      <point x="748" y="1532" type="curve" smooth="yes"/>
      <point x="1042" y="1532"/>
      <point x="1372" y="1444"/>
      <point x="1372" y="1164" type="curve" smooth="yes"/>
      <point x="1372" y="1002"/>
      <point x="1258" y="880"/>
      <point x="1088" y="764" type="curve" smooth="no"/>
      <point x="1139.35" y="718.013"/>
      <point x="1189.68" y="671.012"/>
      <point x="1240" y="624" type="curve" smooth="no"/>
      <point x="1286.54" y="687.99"/>
      <point x="1245.63" y="800"/>
      <point x="1362" y="800" type="curve" smooth="yes"/>
      <point x="1480" y="800" type="line" smooth="yes"/>
      <point x="1530" y="800"/>
      <point x="1582" y="798"/>
      <point x="1636" y="798" type="curve" smooth="yes"/>
      <point x="1682" y="798" type="line" smooth="no"/>
      <point x="1696" y="800"/>
      <point x="1712" y="800"/>
      <point x="1726" y="800" type="curve" smooth="no"/>
      <point x="1748" y="796"/>
      <point x="1756" y="788"/>
      <point x="1760" y="764" type="curve" smooth="no"/>
      <point x="1760" y="724" type="line" smooth="no"/>
      <point x="1746" y="580"/>
      <point x="1682" y="428"/>
      <point x="1568" y="312" type="curve" smooth="no"/>
      <point x="1684" y="196" type="line" smooth="no"/>
      <point x="1718.84" y="155.016"/>
      <point x="1848" y="56.623"/>
      <point x="1848" y="0" type="curve" smooth="yes"/>
      <point x="1848" y="-18"/>
      <point x="1836" y="-30"/>
      <point x="1810" y="-32" type="curve" smooth="no"/>
    </contour>
    <contour>
      <point x="520" y="400" type="curve" smooth="yes"/>
      <point x="520" y="284"/>
      <point x="646" y="232"/>
      <point x="740" y="232" type="curve" smooth="yes"/>
      <point x="820" y="232"/>
      <point x="890" y="258"/>
      <point x="960" y="296" type="curve" smooth="no"/>
      <point x="891.047" y="371.849"/>
      <point x="813.015" y="434.803"/>
      <point x="740" y="506" type="curve" smooth="no"/>
      <point x="686" y="556" type="line" smooth="yes"/>
      <point x="668" y="572"/>
      <point x="650" y="588"/>
      <point x="644" y="588" type="curve" smooth="no"/>
      <point x="584" y="560"/>
      <point x="520" y="476"/>
    </contour>
    <contour>
      <point x="610" y="1144" type="curve" smooth="no"/>
      <point x="620.652" y="1069.43"/>
      <point x="706.211" y="996.171"/>
      <point x="776" y="970" type="curve" smooth="no"/>
      <point x="782" y="970"/>
      <point x="782" y="972"/>
      <point x="788" y="972" type="curve" smooth="no"/>
      <point x="836" y="1010" type="line" smooth="yes"/>
      <point x="882" y="1046"/>
      <point x="928" y="1102"/>
      <point x="928" y="1156" type="curve" smooth="yes"/>
      <point x="928" y="1246"/>
      <point x="826" y="1276"/>
      <point x="760" y="1276" type="curve" smooth="yes"/>
      <point x="686" y="1276"/>
      <point x="610" y="1228"/>
    </contour>
  </outline>
</glyph>
<glyph name="two" format="1">
  <advance width="1458"/>
  <unicode hex="0032"/>
  <outline>
    <contour>
      <point x="1400" y="1076" type="curve" smooth="yes"/>
      <point x="1400" y="721.461"/>
      <point x="1096.63" y="626.627"/>
      <point x="874" y="404" type="curve" smooth="no"/>
      <point x="1012" y="404"/>
      <point x="1152" y="412"/>
      <point x="1296" y="412" type="curve" smooth="yes"/>
      <point x="1396" y="412"/>
      <point x="1414" y="334"/>
      <point x="1414" y="232" type="curve" smooth="yes"/>
      <point x="1414" y="176"/>
      <point x="1408" y="108"/>
      <point x="1408" y="42" type="curve" smooth="yes"/>
      <point x="1408" y="24" type="line" smooth="yes"/>
      <point x="1408" y="-2"/>
      <point x="1406" y="-18"/>
      <point x="1368" y="-24" type="curve" smooth="no"/>
      <point x="1296" y="-24" type="line" smooth="no"/>
      <point x="1174" y="-20"/>
      <point x="1062" y="-18"/>
      <point x="972" y="-16" type="curve" smooth="no"/>
      <point x="678" y="-16"/>
      <point x="394" y="-22"/>
      <point x="98" y="-32" type="curve" smooth="no"/>
      <point x="98" y="-12" type="line" smooth="no"/>
      <point x="78" y="0"/>
      <point x="64" y="40"/>
      <point x="64" y="84" type="curve" smooth="yes"/>
      <point x="64" y="376" type="line" smooth="yes"/>
      <point x="64" y="392"/>
      <point x="84" y="412"/>
      <point x="132" y="444" type="curve" smooth="yes"/>
      <point x="263.983" y="533.35"/>
      <point x="396.143" y="622.524"/>
      <point x="526" y="714" type="curve" smooth="no"/>
      <point x="588" y="762" type="line" smooth="yes"/>
      <point x="624" y="790"/>
      <point x="804" y="926"/>
      <point x="804" y="1062" type="curve" smooth="yes"/>
      <point x="804" y="1118"/>
      <point x="768" y="1152"/>
      <point x="714" y="1152" type="curve" smooth="yes"/>
      <point x="590" y="1152"/>
      <point x="642" y="1004"/>
      <point x="580" y="988" type="curve" smooth="no"/>
      <point x="116" y="988" type="line" smooth="yes"/>
      <point x="86" y="988"/>
      <point x="60" y="992"/>
      <point x="60" y="1018" type="curve" smooth="no"/>
      <point x="100.726" y="1411.68"/>
      <point x="361.017" y="1544"/>
      <point x="734" y="1544" type="curve" smooth="yes"/>
      <point x="1074" y="1544"/>
      <point x="1400" y="1408"/>
    </contour>
  </outline>
</glyph>
<glyph name="four" format="1">
  <advance width="1432"/>
  <unicode hex="0034"/>
  <outline>
    <contour>
      <point x="-8" y="248" type="curve" smooth="no"/>
      <point x="-8" y="548" type="line" smooth="yes"/>
      <point x="-8" y="658"/>
      <point x="78" y="788"/>
      <point x="128" y="874" type="curve" smooth="no"/>
      <point x="253.973" y="1075.36"/>
      <point x="380.935" y="1295.73"/>
      <point x="508" y="1496" type="curve" smooth="no"/>
      <point x="1260" y="1496" type="line" smooth="no"/>
      <point x="1260" y="1432" type="line" smooth="yes"/>
      <point x="1260" y="1246"/>
      <point x="1252" y="1064"/>
      <point x="1252" y="878" type="curve" smooth="yes"/>
      <point x="1252" y="832" type="line" smooth="yes"/>
      <point x="1252" y="816"/>
      <point x="1252" y="800"/>
      <point x="1254" y="784" type="curve" smooth="no"/>
      <point x="1254" y="776" type="line" smooth="yes"/>
      <point x="1254" y="766"/>
      <point x="1254" y="754"/>
      <point x="1252" y="744" type="curve" smooth="no"/>
      <point x="1252" y="708" type="line" smooth="yes"/>
      <point x="1252" y="672"/>
      <point x="1258" y="634"/>
      <point x="1296" y="634" type="curve" smooth="yes"/>
      <point x="1322" y="634"/>
      <point x="1354" y="636"/>
      <point x="1380" y="636" type="curve" smooth="yes"/>
      <point x="1422" y="636"/>
      <point x="1432" y="630"/>
      <point x="1432" y="576" type="curve" smooth="yes"/>
      <point x="1432" y="574"/>
      <point x="1430" y="572"/>
      <point x="1428" y="572" type="curve" smooth="no"/>
      <point x="1428" y="554"/>
      <point x="1434" y="442"/>
      <point x="1434" y="336" type="curve" smooth="yes"/>
      <point x="1434" y="248"/>
      <point x="1430" y="212"/>
      <point x="1400" y="212" type="curve" smooth="yes"/>
      <point x="1260" y="212" type="line" smooth="no"/>
      <point x="1262" y="150"/>
      <point x="1264" y="90"/>
      <point x="1264" y="32" type="curve" smooth="yes"/>
      <point x="1264" y="-4"/>
      <point x="1264" y="-24"/>
      <point x="1224" y="-28" type="curve" smooth="no"/>
      <point x="1030" y="-28" type="line" smooth="yes"/>
      <point x="922" y="-28"/>
      <point x="818" y="-26"/>
      <point x="706" y="-34" type="curve" smooth="no"/>
      <point x="672" y="8" type="line" smooth="no"/>
      <point x="672" y="226" type="line" smooth="no"/>
      <point x="56" y="226" type="line" smooth="yes"/>
      <point x="28" y="226"/>
      <point x="8" y="216"/>
    </contour>
    <contour>
      <point x="406" y="628" type="curve" smooth="no"/>
      <point x="406" y="602" type="line" smooth="no"/>
      <point x="408" y="592"/>
      <point x="424" y="584"/>
      <point x="430" y="576" type="curve" smooth="no"/>
      <point x="430" y="576" type="line" smooth="no"/>
      <point x="520" y="576"/>
      <point x="626" y="582"/>
      <point x="714" y="582" type="curve" smooth="no"/>
      <point x="732" y="590"/>
      <point x="738" y="600"/>
      <point x="744" y="618" type="curve" smooth="no"/>
      <point x="744" y="656" type="line" smooth="no"/>
      <point x="742" y="666"/>
      <point x="742" y="678"/>
      <point x="742" y="692" type="curve" smooth="yes"/>
      <point x="742" y="698"/>
      <point x="744" y="770"/>
      <point x="744" y="854" type="curve" smooth="yes"/>
      <point x="744" y="978"/>
      <point x="738" y="1140"/>
      <point x="704" y="1140" type="curve" smooth="no"/>
      <point x="704" y="1124" type="line" smooth="no"/>
      <point x="610.672" y="959.328"/>
      <point x="497.989" y="794.011"/>
    </contour>
  </outline>
</glyph>
<glyph name="eight" format="1">
  <advance width="1450"/>
  <unicode hex="0038"/>
  <outline>
    <contour>
      <point x="708" y="1548" type="curve" smooth="yes"/>
      <point x="1057.05" y="1548"/>
      <point x="1366" y="1405.95"/>
      <point x="1366" y="1066" type="curve" smooth="yes"/>
      <point x="1366" y="912"/>
      <point x="1294" y="812"/>
      <point x="1160" y="764" type="curve" smooth="no"/>
      <point x="1296" y="696"/>
      <point x="1408" y="602"/>
      <point x="1408" y="396" type="curve" smooth="yes"/>
      <point x="1408" y="108"/>
      <point x="1176" y="-56"/>
      <point x="688" y="-56" type="curve" smooth="yes"/>
      <point x="156" y="-56"/>
      <point x="56" y="180"/>
      <point x="28" y="396" type="curve" smooth="no"/>
      <point x="38" y="554"/>
      <point x="96" y="676"/>
      <point x="264" y="754" type="curve" smooth="no"/>
      <point x="136" y="812"/>
      <point x="74" y="924"/>
      <point x="74" y="1068" type="curve" smooth="yes"/>
      <point x="74" y="1428"/>
      <point x="428" y="1548"/>
    </contour>
    <contour>
      <point x="558" y="440" type="curve" smooth="no"/>
      <point x="568" y="342"/>
      <point x="622" y="272"/>
      <point x="720" y="272" type="curve" smooth="yes"/>
      <point x="822" y="272"/>
      <point x="876" y="342"/>
      <point x="876" y="432" type="curve" smooth="yes"/>
      <point x="876" y="550"/>
      <point x="828" y="620"/>
      <point x="718" y="620" type="curve" smooth="yes"/>
      <point x="622" y="620"/>
      <point x="558" y="538"/>
    </contour>
    <contour>
      <point x="584" y="1048" type="curve" smooth="yes"/>
      <point x="584" y="968"/>
      <point x="612" y="888"/>
      <point x="722" y="888" type="curve" smooth="yes"/>
      <point x="818" y="888"/>
      <point x="854" y="968"/>
      <point x="854" y="1052" type="curve" smooth="yes"/>
      <point x="854" y="1146"/>
      <point x="820" y="1212"/>
      <point x="714" y="1212" type="curve" smooth="yes"/>
      <point x="622" y="1212"/>
      <point x="584" y="1116"/>
    </contour>
  </outline>
</glyph>
<glyph name="at" format="1">
  <advance width="1670"/>
  <unicode hex="0040"/>
  <outline>
    <contour>
      <point x="72" y="724" type="curve" smooth="yes"/>
      <point x="72" y="1210"/>
      <point x="460" y="1502"/>
      <point x="856" y="1502" type="curve" smooth="yes"/>
      <point x="1232" y="1502"/>
      <point x="1592" y="1280"/>
      <point x="1592" y="904" type="curve" smooth="yes"/>
      <point x="1592" y="600"/>
      <point x="1408" y="316"/>
      <point x="1214" y="316" type="curve" smooth="yes"/>
      <point x="1136" y="316"/>
      <point x="1070" y="370"/>
      <point x="1028" y="480" type="curve" smooth="no"/>
      <point x="1028" y="480" type="line" smooth="no"/>
      <point x="958" y="394"/>
      <point x="882" y="336"/>
      <point x="732" y="336" type="curve" smooth="yes"/>
      <point x="570" y="336"/>
      <point x="424" y="472"/>
      <point x="424" y="640" type="curve" smooth="yes"/>
      <point x="424" y="676" type="line" smooth="yes"/>
      <point x="424" y="880"/>
      <point x="576" y="1096"/>
      <point x="832" y="1096" type="curve" smooth="no"/>
      <point x="832" y="1096" type="line" smooth="no"/>
      <point x="912" y="1096"/>
      <point x="990" y="1070"/>
      <point x="1044" y="1016" type="curve" smooth="no"/>
      <point x="1092" y="944" type="line" smooth="no"/>
      <point x="1106" y="990"/>
      <point x="1118" y="1038"/>
      <point x="1130" y="1086" type="curve" smooth="no"/>
      <point x="1252" y="1086" type="line" smooth="no"/>
      <point x="1160.24" y="579.042" type="line" smooth="no"/>
      <point x="1160.24" y="517.042"/>
      <point x="1182" y="468"/>
      <point x="1248" y="468" type="curve" smooth="no"/>
      <point x="1386" y="526"/>
      <point x="1424" y="688"/>
      <point x="1424" y="816" type="curve" smooth="yes"/>
      <point x="1424" y="1212"/>
      <point x="1160" y="1340"/>
      <point x="874" y="1340" type="curve" smooth="yes"/>
      <point x="554" y="1340"/>
      <point x="262" y="1124"/>
      <point x="262" y="708" type="curve" smooth="yes"/>
      <point x="262" y="372"/>
      <point x="554" y="152"/>
      <point x="872" y="152" type="curve" smooth="yes"/>
      <point x="954" y="152"/>
      <point x="1034" y="164"/>
      <point x="1108" y="186" type="curve" smooth="no"/>
      <point x="1156" y="40" type="line" smooth="no"/>
      <point x="1046" y="-2"/>
      <point x="940" y="-12"/>
      <point x="812" y="-12" type="curve" smooth="yes"/>
      <point x="422" y="-12"/>
      <point x="72" y="304"/>
    </contour>
    <contour>
      <point x="632" y="692" type="curve" smooth="no"/>
      <point x="632" y="574"/>
      <point x="690" y="508"/>
      <point x="764" y="508" type="curve" smooth="yes"/>
      <point x="920" y="508"/>
      <point x="1014" y="626"/>
      <point x="1014" y="748" type="curve" smooth="yes"/>
      <point x="1014" y="856"/>
      <point x="936" y="912"/>
      <point x="858" y="912" type="curve" smooth="yes"/>
      <point x="722" y="912"/>
      <point x="648" y="810"/>
    </contour>
  </outline>
</glyph>
<glyph name="V" format="1">
  <advance width="1554"/>
  <unicode hex="0056"/>
  <outline>
    <contour>
      <point x="-36.2278" y="1474.81" type="line" smooth="no"/>
      <point x="-36.2278" y="1496.81"/>
      <point x="-20" y="1504"/>
      <point x="-2" y="1504" type="curve" smooth="yes"/>
      <point x="190" y="1504"/>
      <point x="374" y="1508"/>
      <point x="560" y="1508" type="curve" smooth="yes"/>
      <point x="576" y="1508"/>
      <point x="592" y="1502"/>
      <point x="608" y="1480" type="curve" smooth="no"/>
      <point x="780" y="484" type="line" smooth="no"/>
      <point x="808" y="652"/>
      <point x="856" y="820"/>
      <point x="890" y="986" type="curve" smooth="yes"/>
      <point x="990" y="1486" type="line" smooth="no"/>
      <point x="996" y="1504"/>
      <point x="1220" y="1510"/>
      <point x="1400" y="1510" type="curve" smooth="yes"/>
      <point x="1560" y="1510" type="line" smooth="no"/>
      <point x="1576" y="1504"/>
      <point x="1582" y="1486"/>
      <point x="1584" y="1476" type="curve" smooth="no"/>
      <point x="1359.53" y="666.131" type="line" smooth="no"/>
      <point x="1325.58" y="529.901"/>
      <point x="1235.76" y="3.25175"/>
      <point x="1142" y="-28" type="curve" smooth="no"/>
      <point x="1070" y="-28"/>
      <point x="1000" y="-22"/>
      <point x="928" y="-22" type="curve" smooth="yes"/>
      <point x="856" y="-22" type="line" smooth="no"/>
      <point x="700" y="-36"/>
      <point x="541.65" y="-30.0449"/>
      <point x="389.65" y="-36.0449" type="curve" smooth="no"/>
    </contour>
  </outline>
</glyph>
<glyph name="W" format="1">
  <advance width="2130"/>
  <unicode hex="0057"/>
  <outline>
    <contour>
      <point x="1069.45" y="779.609" type="line" smooth="no"/>
      <point x="1048.31" y="665.869"/>
      <point x="992.247" y="-32"/>
      <point x="914" y="-32" type="curve" smooth="yes"/>
      <point x="828" y="-32"/>
      <point x="746" y="-28"/>
      <point x="660" y="-28" type="curve" smooth="yes"/>
      <point x="538" y="-28"/>
      <point x="426" y="-30"/>
      <point x="304" y="-36" type="curve" smooth="no"/>
      <point x="254" y="-10"/>
      <point x="250" y="84"/>
      <point x="240" y="136" type="curve" smooth="yes"/>
      <point x="169.52" y="471.52"/>
      <point x="101.213" y="809.213"/>
      <point x="26" y="1140" type="curve" smooth="no"/>
      <point x="-44" y="1476" type="line" smooth="no"/>
      <point x="-44" y="1494"/>
      <point x="-38" y="1506"/>
      <point x="-16" y="1514" type="curve" smooth="no"/>
      <point x="8" y="1512"/>
      <point x="34" y="1512"/>
      <point x="60" y="1512" type="curve" smooth="yes"/>
      <point x="140" y="1512" type="line" smooth="yes"/>
      <point x="186" y="1512"/>
      <point x="232" y="1516"/>
      <point x="274" y="1516" type="curve" smooth="no"/>
      <point x="308" y="1518"/>
      <point x="344" y="1514"/>
      <point x="378" y="1514" type="curve" smooth="yes"/>
      <point x="436" y="1514" type="line" smooth="no"/>
      <point x="446" y="1512"/>
      <point x="456" y="1512"/>
      <point x="466" y="1512" type="curve" smooth="yes"/>
      <point x="496" y="1512" type="line" smooth="no"/>
      <point x="558.316" y="1495"/>
      <point x="612.771" y="873.558"/>
      <point x="626.836" y="748.856" type="curve" smooth="no"/>
      <point x="754.237" y="1510.3" type="line" smooth="no"/>
      <point x="776.237" y="1508.3"/>
      <point x="810" y="1506"/>
      <point x="830" y="1506" type="curve" smooth="yes"/>
      <point x="892" y="1506" type="line" smooth="yes"/>
      <point x="1052" y="1506"/>
      <point x="1202" y="1508"/>
      <point x="1356" y="1508" type="curve" smooth="yes"/>
      <point x="1372" y="1508"/>
      <point x="1380" y="1498"/>
      <point x="1382" y="1492" type="curve" smooth="no"/>
      <point x="1506.79" y="665.024" type="line" smooth="no"/>
      <point x="1518.79" y="809.024"/>
      <point x="1534" y="948"/>
      <point x="1554" y="1082" type="curve" smooth="yes"/>
      <point x="1614" y="1488" type="line" smooth="no"/>
      <point x="1620" y="1510"/>
      <point x="1652" y="1512"/>
      <point x="1684" y="1512" type="curve" smooth="yes"/>
      <point x="1732" y="1512" type="line" smooth="no"/>
      <point x="1754" y="1514"/>
      <point x="1778" y="1510"/>
      <point x="1806" y="1510" type="curve" smooth="yes"/>
      <point x="1894" y="1510" type="line" smooth="yes"/>
      <point x="1956" y="1510"/>
      <point x="2010" y="1508"/>
      <point x="2026" y="1508" type="curve" smooth="yes"/>
      <point x="2144" y="1508" type="line" smooth="yes"/>
      <point x="2158" y="1508"/>
      <point x="2158.88" y="1479.56"/>
      <point x="2160.88" y="1449.56" type="curve" smooth="no"/>
      <point x="1839.31" y="-22.2197" type="line" smooth="no"/>
      <point x="1779.31" y="-26.2197"/>
      <point x="1700" y="-22"/>
      <point x="1638" y="-22" type="curve" smooth="yes"/>
      <point x="1556" y="-22"/>
      <point x="1472" y="-20"/>
      <point x="1388" y="-20" type="curve" smooth="yes"/>
      <point x="1328" y="-20"/>
      <point x="1252.8" y="-24.3258"/>
      <point x="1192.8" y="-26.3258" type="curve" smooth="no"/>
    </contour>
  </outline>
</glyph>
<glyph name="Z" format="1">
  <advance width="1394"/>
  <unicode hex="005a"/>
  <outline>
    <contour>
      <point x="14" y="16" type="curve" smooth="no"/>
      <point x="14" y="48" type="line" smooth="yes"/>
      <point x="14" y="138"/>
      <point x="18" y="368"/>
      <point x="24" y="368" type="curve" smooth="no"/>
      <point x="26" y="366"/>
      <point x="120" y="490"/>
      <point x="316" y="730" type="curve" smooth="yes"/>
      <point x="608" y="1086" type="line" smooth="no"/>
      <point x="426" y="1086"/>
      <point x="254" y="1080"/>
      <point x="72" y="1080" type="curve" smooth="no"/>
      <point x="50" y="1086"/>
      <point x="48" y="1104"/>
      <point x="48" y="1128" type="curve" smooth="yes"/>
      <point x="48" y="1248" type="line" smooth="yes"/>
      <point x="48" y="1276"/>
      <point x="40" y="1356"/>
      <point x="40" y="1416" type="curve" smooth="yes"/>
      <point x="40" y="1472"/>
      <point x="44" y="1496"/>
      <point x="60" y="1496" type="curve" smooth="yes"/>
      <point x="385.808" y="1496"/>
      <point x="721.954" y="1499.95"/>
      <point x="1052" y="1504" type="curve" smooth="no"/>
      <point x="1264" y="1504" type="line" smooth="yes"/>
      <point x="1336" y="1504"/>
      <point x="1348" y="1506"/>
      <point x="1348" y="1428" type="curve" smooth="yes"/>
      <point x="1348" y="1404"/>
      <point x="1344" y="1378"/>
      <point x="1344" y="1368" type="curve" smooth="yes"/>
      <point x="1344" y="1362" type="line" smooth="yes"/>
      <point x="1344" y="1004.99"/>
      <point x="1232.85" y="965.13"/>
      <point x="1050" y="748" type="curve" smooth="yes"/>
      <point x="760" y="404" type="line" smooth="no"/>
      <point x="1336" y="404" type="line" smooth="yes"/>
      <point x="1368" y="404"/>
      <point x="1368" y="302"/>
      <point x="1368" y="216" type="curve" smooth="yes"/>
      <point x="1368" y="124" type="line" smooth="yes"/>
      <point x="1368" y="104"/>
      <point x="1372" y="74"/>
      <point x="1372" y="48" type="curve" smooth="yes"/>
      <point x="1372" y="-16"/>
      <point x="1350" y="-24"/>
      <point x="1296" y="-24" type="curve" smooth="yes"/>
      <point x="1272" y="-24" type="line" smooth="yes"/>
      <point x="880" y="-24"/>
      <point x="494" y="-36"/>
      <point x="104" y="-36" type="curve" smooth="yes"/>
      <point x="58" y="-36"/>
      <point x="48" y="-28"/>
    </contour>
  </outline>
</glyph>
<glyph name="backslash" format="1">
  <advance width="808"/>
  <unicode hex="005c"/>
  <outline>
    <contour>
      <point x="-35.9909" y="1524" type="line" smooth="no"/>
      <point x="-35.9909" y="1534"/>
      <point x="-30" y="1542"/>
      <point x="-18" y="1548" type="curve" smooth="no"/>
      <point x="50" y="1544"/>
      <point x="118" y="1542"/>
      <point x="188" y="1542" type="curve" smooth="yes"/>
      <point x="214" y="1542"/>
      <point x="244.781" y="1545.03"/>
      <point x="270.781" y="1545.03" type="curve" smooth="no"/>
      <point x="855.913" y="-32.5488" type="line" smooth="no"/>
      <point x="855.913" y="-54.5488"/>
      <point x="838" y="-68"/>
      <point x="816" y="-70" type="curve" smooth="no"/>
      <point x="776" y="-70" type="line" smooth="yes"/>
      <point x="750" y="-70"/>
      <point x="720" y="-72"/>
      <point x="694" y="-72" type="curve" smooth="yes"/>
      <point x="660" y="-72"/>
      <point x="622" y="-70"/>
      <point x="584" y="-70" type="curve" smooth="yes"/>
      <point x="552" y="-70"/>
      <point x="522" y="-70"/>
      <point x="496" y="-76" type="curve" smooth="no"/>
    </contour>
  </outline>
</glyph>
<glyph name="a" format="1">
  <advance width="1482"/>
  <unicode hex="0061"/>
  <outline>
    <contour>
      <point x="552" y="248" type="line" smooth="no"/>
      <point x="521.279" y="144.316"/>
      <point x="546.023" y="38"/>
      <point x="400" y="38" type="curve" smooth="yes"/>
      <point x="-32" y="38" type="line" smooth="no"/>
      <point x="-32" y="72" type="line" smooth="no"/>
      <point x="76.7824" y="401.218"/>
      <point x="170.54" y="729.46"/>
      <point x="280" y="1058" type="curve" smooth="no"/>
      <point x="280" y="1056" type="line" smooth="no"/>
      <point x="314.611" y="1156.06"/>
      <point x="347.28" y="1258.05"/>
      <point x="380" y="1360" type="curve" smooth="no"/>
      <point x="388.293" y="1373.82"/>
      <point x="390.231" y="1378.19"/>
      <point x="400.014" y="1387.97" type="curve" smooth="no"/>
      <point x="940" y="1384" type="line" smooth="yes"/>
      <point x="1018" y="1384"/>
      <point x="1080" y="1380"/>
      <point x="1092" y="1360" type="curve" smooth="no"/>
      <point x="1092" y="1334" type="line" smooth="no"/>
      <point x="1094" y="1322"/>
      <point x="1104" y="1306"/>
      <point x="1114" y="1288" type="curve" smooth="no"/>
      <point x="1161.26" y="1143.93"/>
      <point x="1208.51" y="999.841"/>
      <point x="1256" y="856" type="curve" smooth="no"/>
      <point x="1256" y="844" type="line" smooth="no"/>
      <point x="1264.22" y="778.217"/>
      <point x="1312.85" y="698.038"/>
      <point x="1334.98" y="632.27" type="curve" smooth="no"/>
      <point x="1374.69" y="487.64" type="line" smooth="no"/>
      <point x="1407.04" y="382.655"/>
      <point x="1442.49" y="279.82"/>
      <point x="1478" y="178" type="curve" smooth="no"/>
      <point x="1478" y="180" type="line" smooth="no"/>
      <point x="1478" y="160" type="line" smooth="no"/>
      <point x="1484" y="134"/>
      <point x="1502" y="110"/>
      <point x="1508" y="88" type="curve" smooth="no"/>
      <point x="1508" y="50"/>
      <point x="1494" y="44"/>
      <point x="1452" y="44" type="curve" smooth="yes"/>
      <point x="988" y="44" type="line" smooth="no"/>
      <point x="958" y="48"/>
      <point x="934" y="50"/>
      <point x="930" y="72" type="curve" smooth="no"/>
      <point x="892" y="224" type="line" smooth="yes"/>
      <point x="886" y="250"/>
      <point x="886" y="248"/>
      <point x="860" y="248" type="curve" smooth="yes"/>
    </contour>
    <contour>
      <point x="600" y="604" type="line" smooth="no"/>
      <point x="600" y="600" type="line" smooth="no"/>
    </contour>
    <contour>
      <point x="820" y="724" type="curve" smooth="no"/>
      <point x="799.668" y="818.759"/>
      <point x="785.94" y="920.181"/>
      <point x="756" y="1010" type="curve" smooth="no"/>
      <point x="756" y="1058" type="line" smooth="no"/>
      <point x="750" y="1074"/>
      <point x="742" y="1082"/>
      <point x="728" y="1088" type="curve" smooth="no"/>
      <point x="728" y="1086" type="line" smooth="no"/>
      <point x="710.221" y="1082.05"/>
      <point x="690.118" y="1005.9"/>
      <point x="680" y="952" type="curve" smooth="no"/>
      <point x="680" y="904" type="line" smooth="no"/>
      <point x="676" y="892"/>
      <point x="664" y="888"/>
      <point x="664" y="884" type="curve" smooth="yes"/>
      <point x="646.132" y="805.201"/>
      <point x="628.213" y="726.454"/>
      <point x="610" y="648" type="curve" smooth="no"/>
      <point x="610" y="630"/>
      <point x="600" y="594"/>
      <point x="600" y="584" type="curve" smooth="no"/>
      <point x="848" y="584" type="line" smooth="no"/>
      <point x="848" y="606"/>
      <point x="838" y="648"/>
      <point x="830" y="678" type="curve" smooth="no"/>
      <point x="830" y="700" type="line" smooth="no"/>
      <point x="828" y="708"/>
      <point x="820" y="716"/>
    </contour>
  </outline>
</glyph>
<glyph name="g" format="1">
  <advance width="1502"/>
  <unicode hex="0067"/>
  <outline>
    <contour>
      <point x="1420" y="132" type="line" smooth="no"/>
      <point x="1401.71" y="49.6846"/>
      <point x="945.826" y="12"/>
      <point x="830" y="12" type="curve" smooth="yes"/>
      <point x="664" y="12"/>
      <point x="448" y="20"/>
      <point x="268" y="162" type="curve" smooth="no"/>
      <point x="226" y="198" type="line" smooth="no"/>
      <point x="212" y="208"/>
      <point x="202" y="220"/>
      <point x="192" y="234" type="curve" smooth="yes"/>
      <point x="160" y="276" type="line" smooth="no"/>
      <point x="80" y="402"/>
      <point x="40" y="540"/>
      <point x="40" y="716" type="curve" smooth="yes"/>
      <point x="40" y="870"/>
      <point x="78" y="1018"/>
      <point x="166" y="1140" type="curve" smooth="no"/>
      <point x="194" y="1174" type="line" smooth="no"/>
      <point x="194" y="1188" type="line" smooth="no"/>
      <point x="194" y="1186" type="line" smooth="no"/>
      <point x="344" y="1378"/>
      <point x="600" y="1416"/>
      <point x="788" y="1416" type="curve" smooth="yes"/>
      <point x="932.407" y="1416"/>
      <point x="1213.94" y="1369.28"/>
      <point x="1332" y="1204" type="curve" smooth="no"/>
      <point x="1378.65" y="1141.81"/>
      <point x="1377.81" y="1060.77"/>
      <point x="1400" y="972" type="curve" smooth="no"/>
      <point x="1400" y="942"/>
      <point x="1354" y="938"/>
      <point x="1336" y="938" type="curve" smooth="yes"/>
      <point x="1254" y="938" type="line" smooth="yes"/>
      <point x="1190" y="938"/>
      <point x="1096" y="944"/>
      <point x="1002" y="944" type="curve" smooth="yes"/>
      <point x="892" y="944" type="line" smooth="no"/>
      <point x="867.56" y="952.147"/>
      <point x="866.797" y="986.271"/>
      <point x="852" y="1006" type="curve" smooth="no"/>
      <point x="852" y="1004" type="line" smooth="no"/>
      <point x="842" y="1026"/>
      <point x="820" y="1044"/>
      <point x="772" y="1044" type="curve" smooth="yes"/>
      <point x="628" y="1044"/>
      <point x="614" y="892"/>
      <point x="614" y="776" type="curve" smooth="yes"/>
      <point x="614" y="750"/>
      <point x="616" y="722"/>
      <point x="616" y="704" type="curve" smooth="yes"/>
      <point x="616" y="628" type="line" smooth="yes"/>
      <point x="616" y="528"/>
      <point x="628" y="396"/>
      <point x="792" y="396" type="curve" smooth="yes"/>
      <point x="850" y="396"/>
      <point x="896" y="398"/>
      <point x="946" y="414" type="curve" smooth="no"/>
      <point x="946" y="458" type="line" smooth="yes"/>
      <point x="946" y="474"/>
      <point x="944" y="484"/>
      <point x="944" y="500" type="curve" smooth="yes"/>
      <point x="944" y="506"/>
      <point x="946" y="514"/>
      <point x="946" y="524" type="curve" smooth="no"/>
      <point x="908" y="524" type="line" smooth="yes"/>
      <point x="894" y="524"/>
      <point x="882" y="522"/>
      <point x="872" y="522" type="curve" smooth="yes"/>
      <point x="788" y="522" type="line" smooth="no"/>
      <point x="754" y="560" type="line" smooth="no"/>
      <point x="752" y="570"/>
      <point x="752" y="580"/>
      <point x="752" y="590" type="curve" smooth="yes"/>
      <point x="752" y="652" type="line" smooth="yes"/>
      <point x="752" y="678"/>
      <point x="754" y="700"/>
      <point x="754" y="730" type="curve" smooth="yes"/>
      <point x="754" y="758" type="line" smooth="yes"/>
      <point x="754" y="764"/>
      <point x="756" y="770"/>
      <point x="756" y="780" type="curve" smooth="yes"/>
      <point x="756" y="788" type="line" smooth="yes"/>
      <point x="756" y="812"/>
      <point x="764" y="824"/>
      <point x="790" y="840" type="curve" smooth="no"/>
      <point x="884" y="840" type="line" smooth="yes"/>
      <point x="894" y="840"/>
      <point x="904" y="838"/>
      <point x="914" y="836" type="curve" smooth="no"/>
      <point x="1004" y="836" type="line" smooth="no"/>
      <point x="1054" y="834"/>
      <point x="1110" y="832"/>
      <point x="1152" y="832" type="curve" smooth="yes"/>
      <point x="1248" y="832" type="line" smooth="yes"/>
      <point x="1326" y="832"/>
      <point x="1406" y="826"/>
      <point x="1428" y="804" type="curve" smooth="no"/>
      <point x="1428" y="612"/>
      <point x="1420" y="412"/>
      <point x="1420" y="220" type="curve" smooth="yes"/>
    </contour>
  </outline>
</glyph>
<glyph name="p" format="1">
  <advance width="1366"/>
  <unicode hex="0070"/>
  <outline>
    <contour>
      <point x="104.008" y="39.7422" type="line" smooth="no"/>
      <point x="82.5301" y="705.565" type="line" smooth="no"/>
      <point x="82.5301" y="913.565"/>
      <point x="98" y="1122"/>
      <point x="98" y="1340" type="curve" smooth="yes"/>
      <point x="98" y="1384"/>
      <point x="142" y="1362"/>
      <point x="192" y="1372" type="curve" smooth="no"/>
      <point x="908" y="1372" type="line" smooth="yes"/>
      <point x="1106" y="1372"/>
      <point x="1352" y="1244"/>
      <point x="1352" y="936" type="curve" smooth="yes"/>
      <point x="1352" y="774"/>
      <point x="1280" y="658"/>
      <point x="1152" y="554" type="curve" smooth="no"/>
      <point x="1056" y="504"/>
      <point x="960" y="486"/>
      <point x="856" y="480" type="curve" smooth="no"/>
      <point x="824" y="480" type="line" smooth="no"/>
      <point x="804" y="476"/>
      <point x="774" y="472"/>
      <point x="744" y="472" type="curve" smooth="yes"/>
      <point x="664" y="472" type="line" smooth="yes"/>
      <point x="662" y="472"/>
      <point x="658" y="472"/>
      <point x="654" y="470" type="curve" smooth="no"/>
      <point x="654" y="336"/>
      <point x="654" y="208"/>
      <point x="662" y="74" type="curve" smooth="no"/>
      <point x="656" y="48"/>
      <point x="638" y="40"/>
      <point x="584" y="40" type="curve" smooth="yes"/>
    </contour>
    <contour>
      <point x="604" y="804" type="curve" smooth="yes"/>
      <point x="604" y="786" type="line" smooth="no"/>
      <point x="606.465" y="782.918"/>
      <point x="630" y="776.403"/>
      <point x="630" y="772" type="curve" smooth="yes"/>
      <point x="630" y="770" type="line" smooth="no"/>
      <point x="628" y="770"/>
      <point x="628" y="772"/>
      <point x="628" y="774" type="curve" smooth="no"/>
      <point x="630" y="772"/>
      <point x="634" y="772"/>
      <point x="640" y="772" type="curve" smooth="yes"/>
      <point x="746" y="772"/>
      <point x="852" y="816"/>
      <point x="852" y="936" type="curve" smooth="yes"/>
      <point x="852" y="1068"/>
      <point x="744" y="1076"/>
      <point x="634" y="1076" type="curve" smooth="no"/>
      <point x="634" y="1076" type="line" smooth="no"/>
      <point x="632" y="1074"/>
      <point x="622" y="1066"/>
      <point x="616" y="1060" type="curve" smooth="no"/>
      <point x="616" y="956" type="line" smooth="no"/>
      <point x="610" y="908"/>
      <point x="604" y="852"/>
    </contour>
  </outline>
</glyph>
<glyph name="q" format="1">
  <advance width="1454"/>
  <unicode hex="0071"/>
  <outline>
    <contour>
      <point x="36" y="724" type="curve" smooth="yes"/>
      <point x="36" y="978"/>
      <point x="132" y="1148"/>
      <point x="270" y="1276" type="curve" smooth="no"/>
      <point x="328" y="1322" type="line" smooth="yes"/>
      <point x="350" y="1340"/>
      <point x="372" y="1352"/>
      <point x="396" y="1360" type="curve" smooth="yes"/>
      <point x="472" y="1384" type="line" smooth="no"/>
      <point x="472" y="1384" type="line" smooth="no"/>
      <point x="506" y="1396"/>
      <point x="628" y="1420"/>
      <point x="712" y="1420" type="curve" smooth="yes"/>
      <point x="752" y="1420" type="line" smooth="yes"/>
      <point x="1172" y="1420"/>
      <point x="1412" y="1132"/>
      <point x="1412" y="756" type="curve" smooth="yes"/>
      <point x="1412" y="732" type="line" smooth="no"/>
      <point x="1406" y="612"/>
      <point x="1376" y="506"/>
      <point x="1310" y="420" type="curve" smooth="no"/>
      <point x="1420" y="420" type="line" smooth="no"/>
      <point x="1460" y="386" type="line" smooth="no"/>
      <point x="1460" y="68" type="line" smooth="no"/>
      <point x="1454" y="48"/>
      <point x="1444" y="36"/>
      <point x="1426" y="32" type="curve" smooth="no"/>
      <point x="1388" y="32"/>
      <point x="1292" y="44"/>
      <point x="1202" y="44" type="curve" smooth="yes"/>
      <point x="1020" y="44"/>
      <point x="868" y="8"/>
      <point x="688" y="8" type="curve" smooth="yes"/>
      <point x="582" y="8"/>
      <point x="489.2" y="32.4"/>
      <point x="407.2" y="70.4" type="curve" smooth="no"/>
      <point x="255.2" y="146.4" type="line" smooth="no"/>
      <point x="226" y="192" type="line" smooth="no"/>
      <point x="226" y="212" type="line" smooth="no"/>
      <point x="226" y="210" type="line" smooth="no"/>
      <point x="196" y="244" type="line" smooth="no"/>
      <point x="188" y="258"/>
      <point x="178" y="272"/>
      <point x="168" y="282" type="curve" smooth="no"/>
      <point x="168" y="308" type="line" smooth="no"/>
      <point x="84" y="450"/>
      <point x="36" y="576"/>
    </contour>
    <contour>
      <point x="564" y="722" type="curve" smooth="yes"/>
      <point x="564" y="596"/>
      <point x="562" y="360"/>
      <point x="714" y="360" type="curve" smooth="no"/>
      <point x="714" y="360" type="line" smooth="no"/>
      <point x="856" y="360"/>
      <point x="876" y="536"/>
      <point x="876" y="652" type="curve" smooth="yes"/>
      <point x="876" y="780" type="line" smooth="yes"/>
      <point x="876" y="900"/>
      <point x="860" y="1074"/>
      <point x="710" y="1074" type="curve" smooth="yes"/>
      <point x="584" y="1074"/>
      <point x="564" y="874"/>
    </contour>
  </outline>
</glyph>
<glyph name="asciitilde" format="1">
  <advance width="1302"/>
  <unicode hex="007e"/>
  <outline>
    <contour>
      <point x="424" y="762" type="curve" smooth="yes"/>
      <point x="577.604" y="762"/>
      <point x="653.386" y="612"/>
      <point x="864" y="612" type="curve" smooth="yes"/>
      <point x="922" y="612"/>
      <point x="960" y="646"/>
      <point x="996" y="694" type="curve" smooth="yes"/>
      <point x="1028" y="736" type="line" smooth="no"/>
      <point x="1028" y="770" type="line" smooth="no"/>
      <point x="1028" y="748" type="line" smooth="no"/>
      <point x="1032" y="750"/>
      <point x="1048" y="752"/>
      <point x="1050" y="752" type="curve" smooth="yes"/>
      <point x="1074" y="752"/>
      <point x="1144" y="552"/>
      <point x="1144" y="498" type="curve" smooth="yes"/>
      <point x="1144" y="490" type="line" smooth="no"/>
      <point x="1142" y="488"/>
      <point x="1140" y="484"/>
      <point x="1140" y="480" type="curve" smooth="no"/>
      <point x="1064" y="378"/>
      <point x="990" y="304"/>
      <point x="868" y="304" type="curve" smooth="yes"/>
      <point x="830" y="304"/>
      <point x="796" y="310"/>
      <point x="766" y="320" type="curve" smooth="no"/>
      <point x="650" y="370" type="line" smooth="no"/>
      <point x="586" y="402"/>
      <point x="528" y="436"/>
      <point x="444" y="436" type="curve" smooth="yes"/>
      <point x="364" y="436"/>
      <point x="322" y="382"/>
      <point x="282" y="312" type="curve" smooth="no"/>
      <point x="248" y="312" type="line" smooth="no"/>
      <point x="234" y="314"/>
      <point x="222" y="322"/>
      <point x="212" y="324" type="curve" smooth="no"/>
      <point x="172" y="438" type="line" smooth="no"/>
      <point x="156" y="480"/>
      <point x="142" y="526"/>
      <point x="144" y="560" type="curve" smooth="no"/>
      <point x="216" y="690"/>
      <point x="300" y="762"/>
    </contour>
  </outline>
</glyph>
<glyph name="exclamdown" format="1">
  <advance width="784"/>
  <unicode hex="00a1"/>
  <outline>
    <contour>
      <point x="60" y="-390" type="line" smooth="no"/>
      <point x="86" y="-174"/>
      <point x="102" y="-30"/>
      <point x="120" y="270" type="curve" smooth="no"/>
      <point x="120" y="416" type="line" smooth="no"/>
      <point x="136" y="604"/>
      <point x="162" y="706"/>
      <point x="186" y="706" type="curve" smooth="no"/>
      <point x="186" y="706" type="line" smooth="no"/>
      <point x="304" y="706"/>
      <point x="392" y="708"/>
      <point x="454" y="708" type="curve" smooth="yes"/>
      <point x="638" y="708"/>
      <point x="610" y="690"/>
      <point x="624" y="548" type="curve" smooth="no"/>
      <point x="624" y="490" type="line" smooth="no"/>
      <point x="646" y="256"/>
      <point x="678" y="14"/>
      <point x="692" y="-220" type="curve" smooth="no"/>
      <point x="692" y="-352" type="line" smooth="no"/>
      <point x="682" y="-392"/>
      <point x="626" y="-384"/>
      <point x="586" y="-390" type="curve" smooth="no"/>
    </contour>
    <contour>
      <point x="112" y="876" type="curve" smooth="no"/>
      <point x="112" y="1012" type="line" smooth="no"/>
      <point x="114" y="1068"/>
      <point x="110" y="1216"/>
      <point x="144" y="1216" type="curve" smooth="yes"/>
      <point x="636" y="1216" type="line" smooth="yes"/>
      <point x="660" y="1216"/>
      <point x="660" y="1092"/>
      <point x="660" y="988" type="curve" smooth="yes"/>
      <point x="660" y="868" type="line" smooth="no"/>
      <point x="650" y="838"/>
      <point x="580" y="836"/>
      <point x="496" y="836" type="curve" smooth="yes"/>
      <point x="376" y="836" type="line" smooth="yes"/>
      <point x="298" y="836"/>
      <point x="222" y="832"/>
      <point x="148" y="830" type="curve" smooth="no"/>
      <point x="134" y="844"/>
      <point x="122" y="860"/>
    </contour>
  </outline>
</glyph>
<glyph name="cent" format="1">
  <advance width="1496"/>
  <unicode hex="00a2"/>
  <outline>
    <contour>
      <point x="1360" y="380" type="curve" smooth="no"/>
      <point x="1341.5" y="114.902"/>
      <point x="1173.39" y="16.1708"/>
      <point x="952" y="-48" type="curve" smooth="no"/>
      <point x="954" y="-104"/>
      <point x="956" y="-164"/>
      <point x="956" y="-220" type="curve" smooth="yes"/>
      <point x="956" y="-256"/>
      <point x="948" y="-276"/>
      <point x="916" y="-276" type="curve" smooth="yes"/>
      <point x="846" y="-276" type="line" smooth="yes"/>
      <point x="774" y="-276"/>
      <point x="702" y="-272"/>
      <point x="630" y="-272" type="curve" smooth="no"/>
      <point x="592" y="-230" type="line" smooth="no"/>
      <point x="592" y="-54" type="line" smooth="no"/>
      <point x="526" y="-54" type="line" smooth="no"/>
      <point x="258" y="18"/>
      <point x="132" y="240"/>
      <point x="132" y="536" type="curve" smooth="yes"/>
      <point x="132" y="870"/>
      <point x="370" y="1014"/>
      <point x="600" y="1082" type="curve" smooth="no"/>
      <point x="600" y="1154"/>
      <point x="598" y="1220"/>
      <point x="598" y="1286" type="curve" smooth="no"/>
      <point x="600" y="1304"/>
      <point x="606" y="1314"/>
      <point x="620" y="1316" type="curve" smooth="no"/>
      <point x="932" y="1316" type="line" smooth="no"/>
      <point x="930" y="1280"/>
      <point x="930" y="1226"/>
      <point x="930" y="1192" type="curve" smooth="yes"/>
      <point x="930" y="1160" type="line" smooth="yes"/>
      <point x="930" y="1136"/>
      <point x="930" y="1108"/>
      <point x="928" y="1082" type="curve" smooth="no"/>
      <point x="1156" y="1072"/>
      <point x="1312" y="940"/>
      <point x="1344" y="662" type="curve" smooth="no"/>
      <point x="1344" y="644"/>
      <point x="1270" y="640"/>
      <point x="1216" y="640" type="curve" smooth="yes"/>
      <point x="1182" y="640"/>
      <point x="1146" y="642"/>
      <point x="1128" y="642" type="curve" smooth="yes"/>
      <point x="1058" y="642"/>
      <point x="992" y="640"/>
      <point x="920" y="640" type="curve" smooth="yes"/>
      <point x="876" y="640"/>
      <point x="856" y="644"/>
      <point x="856" y="674" type="curve" smooth="yes"/>
      <point x="856" y="720"/>
      <point x="852" y="800"/>
      <point x="782" y="800" type="curve" smooth="yes"/>
      <point x="680" y="800"/>
      <point x="664" y="636"/>
      <point x="664" y="548" type="curve" smooth="yes"/>
      <point x="664" y="504" type="line" smooth="yes"/>
      <point x="664" y="484"/>
      <point x="664" y="466"/>
      <point x="666" y="448" type="curve" smooth="no"/>
      <point x="666" y="392" type="line" smooth="yes"/>
      <point x="666" y="338"/>
      <point x="680" y="252"/>
      <point x="760" y="252" type="curve" smooth="yes"/>
      <point x="884" y="252"/>
      <point x="870" y="390"/>
      <point x="884" y="412" type="curve" smooth="no"/>
      <point x="1034" y="410"/>
      <point x="1180" y="410"/>
      <point x="1330" y="410" type="curve" smooth="no"/>
      <point x="1344" y="408"/>
      <point x="1354" y="398"/>
    </contour>
  </outline>
</glyph>
<glyph name="yen" format="1">
  <advance width="1456"/>
  <unicode hex="00a5"/>
  <outline>
    <contour>
      <point x="-49.2581" y="1474.66" type="line" smooth="no"/>
      <point x="-49.2581" y="1496.66"/>
      <point x="74" y="1512"/>
      <point x="160" y="1512" type="curve" smooth="yes"/>
      <point x="226" y="1512" type="line" smooth="yes"/>
      <point x="240" y="1512"/>
      <point x="306" y="1514"/>
      <point x="374" y="1514" type="curve" smooth="yes"/>
      <point x="462" y="1514"/>
      <point x="556" y="1506"/>
      <point x="568" y="1484" type="curve" smooth="no"/>
      <point x="596" y="1396"/>
      <point x="624" y="1312"/>
      <point x="652" y="1224" type="curve" smooth="yes"/>
      <point x="680" y="1136" type="line" smooth="yes"/>
      <point x="700" y="1072"/>
      <point x="724.994" y="1003.75"/>
      <point x="746.994" y="939.751" type="curve" smooth="no"/>
      <point x="904" y="1428" type="line" smooth="no"/>
      <point x="928" y="1498"/>
      <point x="970" y="1508"/>
      <point x="1116" y="1508" type="curve" smooth="yes"/>
      <point x="1418" y="1508" type="line" smooth="yes"/>
      <point x="1448" y="1508"/>
      <point x="1492" y="1508"/>
      <point x="1492" y="1476" type="curve" smooth="no"/>
      <point x="1450" y="1398"/>
      <point x="1403.96" y="1325.53"/>
      <point x="1361.96" y="1247.53" type="curve" smooth="no"/>
      <point x="1198" y="831.086" type="line" smooth="no"/>
      <point x="1240" y="824" type="line" smooth="no"/>
      <point x="1258" y="824"/>
      <point x="1280" y="828"/>
      <point x="1296" y="828" type="curve" smooth="no"/>
      <point x="1322" y="822"/>
      <point x="1328" y="792"/>
      <point x="1328" y="760" type="curve" smooth="yes"/>
      <point x="1328" y="694"/>
      <point x="1340" y="574"/>
      <point x="1296" y="568" type="curve" smooth="no"/>
      <point x="1062" y="568" type="line" smooth="no"/>
      <point x="1042" y="500"/>
      <point x="1036" y="456"/>
      <point x="1028" y="408" type="curve" smooth="no"/>
      <point x="1098" y="414"/>
      <point x="1156" y="414"/>
      <point x="1222" y="414" type="curve" smooth="yes"/>
      <point x="1318" y="414"/>
      <point x="1334" y="400"/>
      <point x="1334" y="344" type="curve" smooth="yes"/>
      <point x="1334" y="328"/>
      <point x="1332" y="312"/>
      <point x="1332" y="296" type="curve" smooth="yes"/>
      <point x="1332" y="218" type="line" smooth="yes"/>
      <point x="1332" y="152"/>
      <point x="1314" y="144"/>
      <point x="1268" y="144" type="curve" smooth="yes"/>
      <point x="1020" y="144" type="line" smooth="no"/>
      <point x="1020" y="0" type="line" smooth="no"/>
      <point x="1010" y="-52"/>
      <point x="866" y="-34"/>
      <point x="800" y="-36" type="curve" smooth="no"/>
      <point x="446" y="-36" type="line" smooth="no"/>
      <point x="416" y="12" type="line" smooth="no"/>
      <point x="416" y="44" type="line" smooth="no"/>
      <point x="418" y="50"/>
      <point x="418" y="56"/>
      <point x="418" y="64" type="curve" smooth="yes"/>
      <point x="418" y="90"/>
      <point x="416" y="114"/>
      <point x="416" y="140" type="curve" smooth="no"/>
      <point x="392" y="140" type="line" smooth="no"/>
      <point x="350" y="138"/>
      <point x="282" y="138"/>
      <point x="224" y="132" type="curve" smooth="no"/>
      <point x="150" y="132"/>
      <point x="122" y="142"/>
      <point x="116" y="176" type="curve" smooth="no"/>
      <point x="116" y="218"/>
      <point x="118" y="250"/>
      <point x="118" y="292" type="curve" smooth="yes"/>
      <point x="118" y="308"/>
      <point x="116" y="326"/>
      <point x="116" y="348" type="curve" smooth="yes"/>
      <point x="116" y="380"/>
      <point x="124" y="412"/>
      <point x="168" y="412" type="curve" smooth="yes"/>
      <point x="264" y="412" type="line" smooth="no"/>
      <point x="296" y="414"/>
      <point x="328" y="410"/>
      <point x="362" y="410" type="curve" smooth="yes"/>
      <point x="408" y="410" type="line" smooth="no"/>
      <point x="408" y="414" type="line" smooth="yes"/>
      <point x="408" y="476"/>
      <point x="428" y="568"/>
      <point x="392" y="568" type="curve" smooth="yes"/>
      <point x="344" y="568"/>
      <point x="294" y="560"/>
      <point x="246" y="564" type="curve" smooth="no"/>
      <point x="150" y="564" type="line" smooth="no"/>
      <point x="124" y="570"/>
      <point x="120" y="612"/>
      <point x="120" y="668" type="curve" smooth="yes"/>
      <point x="120" y="772" type="line" smooth="yes"/>
      <point x="120" y="828"/>
      <point x="156" y="824"/>
      <point x="204" y="824" type="curve" smooth="no"/>
      <point x="204" y="824" type="line" smooth="no"/>
      <point x="220" y="824"/>
      <point x="242" y="824"/>
      <point x="264" y="822" type="curve" smooth="no"/>
      <point x="264" y="896" type="line" smooth="no"/>
    </contour>
  </outline>
</glyph>
<glyph name="section" format="1">
  <advance width="1818"/>
  <unicode hex="00a7"/>
  <outline>
    <contour>
      <point x="276" y="324" type="curve" smooth="no"/>
      <point x="358.204" y="282.898"/>
      <point x="497.069" y="256"/>
      <point x="584" y="256" type="curve" smooth="yes"/>
      <point x="606" y="256"/>
      <point x="644" y="264"/>
      <point x="644" y="296" type="curve" smooth="yes"/>
      <point x="644" y="326"/>
      <point x="560" y="354"/>
      <point x="538" y="364" type="curve" smooth="no"/>
      <point x="416" y="412" type="line" smooth="yes"/>
      <point x="262" y="472"/>
      <point x="188" y="572"/>
      <point x="188" y="708" type="curve" smooth="yes"/>
      <point x="188" y="826"/>
      <point x="258" y="938"/>
      <point x="386" y="986" type="curve" smooth="no"/>
      <point x="300" y="1028"/>
      <point x="248" y="1108"/>
      <point x="248" y="1218" type="curve" smooth="no"/>
      <point x="268" y="1436"/>
      <point x="460" y="1540"/>
      <point x="756" y="1540" type="curve" smooth="yes"/>
      <point x="870" y="1540"/>
      <point x="1210" y="1518"/>
      <point x="1218" y="1478" type="curve" smooth="no"/>
      <point x="1218" y="1392"/>
      <point x="1220" y="1318"/>
      <point x="1220" y="1232" type="curve" smooth="yes"/>
      <point x="1220" y="1212"/>
      <point x="1218" y="1192"/>
      <point x="1196" y="1192" type="curve" smooth="no"/>
      <point x="1108" y="1210"/>
      <point x="1018" y="1232"/>
      <point x="928" y="1232" type="curve" smooth="yes"/>
      <point x="898" y="1232"/>
      <point x="868" y="1224"/>
      <point x="868" y="1208" type="curve" smooth="yes"/>
      <point x="868" y="1174"/>
      <point x="978" y="1150"/>
      <point x="1034" y="1128" type="curve" smooth="no"/>
      <point x="1080" y="1128" type="line" smooth="no"/>
      <point x="1258" y="1058"/>
      <point x="1338" y="936"/>
      <point x="1344" y="810" type="curve" smooth="no"/>
      <point x="1344" y="666"/>
      <point x="1284" y="544"/>
      <point x="1146" y="476" type="curve" smooth="no"/>
      <point x="1218" y="428"/>
      <point x="1264" y="346"/>
      <point x="1264" y="258" type="curve" smooth="yes"/>
      <point x="1264" y="-12"/>
      <point x="966" y="-66"/>
      <point x="810" y="-66" type="curve" smooth="yes"/>
      <point x="620" y="-66"/>
      <point x="438" y="-52"/>
      <point x="252" y="-20" type="curve" smooth="no"/>
      <point x="222" y="20" type="line" smooth="no"/>
      <point x="220" y="94"/>
      <point x="220" y="156"/>
      <point x="220" y="238" type="curve" smooth="yes"/>
      <point x="220" y="282"/>
      <point x="224" y="328"/>
      <point x="258" y="328" type="curve" smooth="yes"/>
      <point x="264" y="328"/>
      <point x="270" y="324"/>
    </contour>
    <contour>
      <point x="680" y="848" type="line" smooth="no"/>
      <point x="657.708" y="848"/>
      <point x="628" y="789.498"/>
      <point x="628" y="772" type="curve" smooth="yes"/>
      <point x="628" y="670"/>
      <point x="840" y="632"/>
      <point x="858" y="632" type="curve" smooth="yes"/>
      <point x="868" y="632"/>
      <point x="928" y="650"/>
      <point x="928" y="688" type="curve" smooth="yes"/>
      <point x="928" y="764"/>
      <point x="714" y="830"/>
      <point x="680" y="848" type="curve" smooth="no"/>
    </contour>
  </outline>
</glyph>
<glyph name="acute" format="1">
  <advance width="640"/>
  <unicode hex="00b4"/>
  <outline>
    <contour>
      <point x="28" y="1402" type="line" smooth="no"/>
      <point x="243.557" y="1768.96" type="line" smooth="no"/>
      <point x="436" y="1764" type="line" smooth="no"/>
      <point x="480.09" y="1761.19"/>
      <point x="754.709" y="1760.15"/>
      <point x="754.709" y="1730.03" type="curve" smooth="no"/>
      <point x="484" y="1426" type="line" smooth="yes"/>
      <point x="416" y="1350"/>
      <point x="384" y="1364"/>
      <point x="268" y="1358" type="curve" smooth="no"/>
      <point x="52" y="1358" type="line" smooth="no"/>
    </contour>
  </outline>
</glyph>
<glyph name="uni00B5" format="1">
  <advance width="1358"/>
  <unicode hex="00b5"/>
  <outline>
    <contour>
      <point x="948" y="-20" type="line" smooth="yes"/>
      <point x="823.604" y="-20"/>
      <point x="756" y="-38.7327"/>
      <point x="756" y="96" type="curve" smooth="yes"/>
      <point x="756" y="76" type="line" smooth="no"/>
      <point x="722" y="18"/>
      <point x="660" y="-48"/>
      <point x="596" y="-48" type="curve" smooth="no"/>
      <point x="596" y="-400" type="line" smooth="no"/>
      <point x="508" y="-406"/>
      <point x="412" y="-412"/>
      <point x="324" y="-412" type="curve" smooth="yes"/>
      <point x="292" y="-412" type="line" smooth="no"/>
      <point x="278" y="-410"/>
      <point x="266" y="-410"/>
      <point x="256" y="-410" type="curve" smooth="yes"/>
      <point x="176" y="-410" type="line" smooth="yes"/>
      <point x="162" y="-410"/>
      <point x="150" y="-412"/>
      <point x="136" y="-412" type="curve" smooth="yes"/>
      <point x="96" y="-412"/>
      <point x="82" y="-404"/>
      <point x="82" y="-386" type="curve" smooth="yes"/>
      <point x="82" y="1018" type="line" smooth="yes"/>
      <point x="82" y="1068"/>
      <point x="126.016" y="1061.75"/>
      <point x="168.016" y="1061.75" type="curve" smooth="yes"/>
      <point x="580" y="1058" type="line" smooth="no"/>
      <point x="602" y="1054"/>
      <point x="612" y="1044"/>
      <point x="616" y="1016" type="curve" smooth="no"/>
      <point x="616" y="448" type="line" smooth="yes"/>
      <point x="616" y="370"/>
      <point x="618" y="304"/>
      <point x="672" y="304" type="curve" smooth="yes"/>
      <point x="720" y="304"/>
      <point x="730.152" y="350.11"/>
      <point x="730.152" y="392.11" type="curve" smooth="yes"/>
      <point x="742" y="1024" type="line" smooth="yes"/>
      <point x="742" y="1040"/>
      <point x="750" y="1048"/>
      <point x="764" y="1048" type="curve" smooth="yes"/>
      <point x="1264" y="1048" type="line" smooth="no"/>
      <point x="1297.46" y="1044.28"/>
      <point x="1271.76" y="1032.24"/>
      <point x="1296" y="1008" type="curve" smooth="no"/>
      <point x="1296" y="768"/>
      <point x="1290" y="542"/>
      <point x="1290" y="310" type="curve" smooth="yes"/>
      <point x="1290" y="8" type="line" smooth="no"/>
      <point x="1284" y="-16"/>
      <point x="1262" y="-20"/>
      <point x="1236" y="-20" type="curve" smooth="yes"/>
    </contour>
  </outline>
</glyph>
<glyph name="ordmasculine" format="1">
  <advance width="938"/>
  <unicode hex="00ba"/>
  <outline>
    <contour>
      <point x="-28" y="1186" type="curve" smooth="no"/>
      <point x="-28" y="1200" type="line" smooth="no"/>
      <point x="-2" y="1462"/>
      <point x="216" y="1540"/>
      <point x="418" y="1540" type="curve" smooth="yes"/>
      <point x="678" y="1540"/>
      <point x="952" y="1480"/>
      <point x="952" y="1196" type="curve" smooth="no"/>
      <point x="942" y="908"/>
      <point x="688" y="836"/>
      <point x="420" y="836" type="curve" smooth="yes"/>
      <point x="216" y="836"/>
      <point x="-2" y="896"/>
    </contour>
  </outline>
</glyph>
<glyph name="AE" format="1">
  <advance width="2382"/>
  <unicode hex="00c6"/>
  <outline>
    <contour>
      <point x="1956" y="-12" type="curve" smooth="yes"/>
      <point x="1801.85" y="-12"/>
      <point x="1699.41" y="-24"/>
      <point x="1554" y="-24" type="curve" smooth="yes"/>
      <point x="1156" y="-24" type="line" smooth="yes"/>
      <point x="1116" y="-24"/>
      <point x="1058" y="-32"/>
      <point x="1044" y="8" type="curve" smooth="no"/>
      <point x="1044" y="74" type="line" smooth="no"/>
      <point x="1032" y="134"/>
      <point x="996" y="208"/>
      <point x="956" y="208" type="curve" smooth="yes"/>
      <point x="612" y="208" type="line" smooth="no"/>
      <point x="560" y="-4" type="line" smooth="no"/>
      <point x="546" y="-26"/>
      <point x="498" y="-28"/>
      <point x="448" y="-28" type="curve" smooth="yes"/>
      <point x="368" y="-28" type="line" smooth="yes"/>
      <point x="282" y="-28"/>
      <point x="198" y="-34"/>
      <point x="112" y="-34" type="curve" smooth="yes"/>
      <point x="84" y="-34" type="line" smooth="yes"/>
      <point x="50" y="-34"/>
      <point x="18" y="-36"/>
      <point x="-20" y="-36" type="curve" smooth="no"/>
      <point x="-30" y="-26"/>
      <point x="-38" y="-14"/>
      <point x="-48" y="0" type="curve" smooth="no"/>
      <point x="-14" y="126"/>
      <point x="24" y="250"/>
      <point x="64" y="374" type="curve" smooth="yes"/>
      <point x="182.895" y="736.575"/>
      <point x="266.63" y="1169.26"/>
      <point x="436" y="1508" type="curve" smooth="no"/>
      <point x="612" y="1508" type="line" smooth="yes"/>
      <point x="730" y="1508"/>
      <point x="842" y="1512"/>
      <point x="960" y="1512" type="curve" smooth="yes"/>
      <point x="1128" y="1512" type="line" smooth="yes"/>
      <point x="1142" y="1512"/>
      <point x="1156" y="1510"/>
      <point x="1168" y="1508" type="curve" smooth="no"/>
      <point x="1392" y="1514"/>
      <point x="1608" y="1516"/>
      <point x="1838" y="1516" type="curve" smooth="no"/>
      <point x="1856" y="1514"/>
      <point x="1866" y="1506"/>
      <point x="1870" y="1492" type="curve" smooth="yes"/>
      <point x="1905.42" y="1364.75"/>
      <point x="1941.93" y="1238.59"/>
      <point x="1976" y="1110" type="curve" smooth="no"/>
      <point x="1976" y="1092"/>
      <point x="1950" y="1084"/>
      <point x="1926" y="1084" type="curve" smooth="yes"/>
      <point x="1900" y="1084" type="line" smooth="yes"/>
      <point x="1740" y="1084"/>
      <point x="1584" y="1086"/>
      <point x="1424" y="1092" type="curve" smooth="no"/>
      <point x="1434" y="1038"/>
      <point x="1440" y="988"/>
      <point x="1454" y="934" type="curve" smooth="no"/>
      <point x="1926" y="934" type="line" smooth="yes"/>
      <point x="1968" y="934"/>
      <point x="1982" y="922"/>
      <point x="1988" y="900" type="curve" smooth="no"/>
      <point x="1988" y="868" type="line" smooth="no"/>
      <point x="2012" y="772"/>
      <point x="2058" y="680"/>
      <point x="2082" y="584" type="curve" smooth="no"/>
      <point x="2082" y="574" type="line" smooth="yes"/>
      <point x="2082" y="566"/>
      <point x="2078" y="564"/>
      <point x="2072" y="564" type="curve" smooth="yes"/>
      <point x="2070" y="564"/>
      <point x="2066" y="566"/>
      <point x="2060" y="568" type="curve" smooth="no"/>
      <point x="1906" y="560"/>
      <point x="1756" y="552"/>
      <point x="1596" y="552" type="curve" smooth="yes"/>
      <point x="1570" y="552" type="line" smooth="no"/>
      <point x="1612" y="408" type="line" smooth="no"/>
      <point x="1786" y="408"/>
      <point x="1946" y="424"/>
      <point x="2116" y="424" type="curve" smooth="yes"/>
      <point x="2144" y="424"/>
      <point x="2188" y="420"/>
      <point x="2200" y="396" type="curve" smooth="no"/>
      <point x="2313.12" y="18.9358" type="line" smooth="no"/>
      <point x="2313.12" y="0.93578"/>
      <point x="2306" y="-14"/>
      <point x="2282" y="-14" type="curve" smooth="yes"/>
      <point x="2176" y="-14"/>
      <point x="2066" y="-12"/>
    </contour>
    <contour>
      <point x="646.461" y="607.435" type="line" smooth="no"/>
      <point x="674" y="560" type="line" smooth="no"/>
      <point x="740" y="560" type="line" smooth="yes"/>
      <point x="822" y="560"/>
      <point x="953.091" y="568.244"/>
      <point x="953.091" y="600.244" type="curve" smooth="no"/>
      <point x="824.228" y="1175.63" type="line" smooth="no"/>
      <point x="800.228" y="1175.63"/>
      <point x="752" y="1070"/>
      <point x="726" y="954" type="curve" smooth="yes"/>
    </contour>
  </outline>
</glyph>
<glyph name="Oslash" format="1">
  <advance width="1644"/>
  <unicode hex="00d8"/>
  <outline>
    <contour>
      <point x="288" y="-180" type="curve" smooth="no"/>
      <point x="288" y="-174" type="line" smooth="no"/>
      <point x="272" y="-174"/>
      <point x="225.155" y="-154.598"/>
      <point x="209.155" y="-146.598" type="curve" smooth="no"/>
      <point x="341.808" y="62.8549" type="line" smooth="no"/>
      <point x="89.8081" y="226.855"/>
      <point x="24" y="502"/>
      <point x="24" y="752" type="curve" smooth="yes"/>
      <point x="24" y="862" type="line" smooth="no"/>
      <point x="58" y="1342"/>
      <point x="452" y="1550"/>
      <point x="844" y="1550" type="curve" smooth="yes"/>
      <point x="960" y="1550"/>
      <point x="1106" y="1524"/>
      <point x="1240" y="1460" type="curve" smooth="no"/>
      <point x="1352.41" y="1632.93" type="line" smooth="no"/>
      <point x="1360.41" y="1632.93"/>
      <point x="1426" y="1602"/>
      <point x="1426" y="1586" type="curve" smooth="yes"/>
      <point x="1426" y="1570"/>
      <point x="1390" y="1508"/>
      <point x="1358" y="1458" type="curve" smooth="yes"/>
      <point x="1324" y="1406" type="line" smooth="no"/>
      <point x="1524" y="1258"/>
      <point x="1596" y="1008"/>
      <point x="1596" y="776" type="curve" smooth="no"/>
      <point x="1598" y="566"/>
      <point x="1552" y="374"/>
      <point x="1448" y="232" type="curve" smooth="yes"/>
      <point x="1404" y="172" type="line" smooth="yes"/>
      <point x="1280" y="2"/>
      <point x="1006" y="-56"/>
      <point x="804" y="-56" type="curve" smooth="yes"/>
      <point x="670" y="-56"/>
      <point x="552" y="-40"/>
      <point x="438" y="8" type="curve" smooth="no"/>
      <point x="382" y="-80" type="line" smooth="yes"/>
      <point x="348" y="-134"/>
      <point x="314" y="-182"/>
    </contour>
    <contour>
      <point x="820" y="1148" type="curve" smooth="yes"/>
      <point x="621.213" y="1148"/>
      <point x="620" y="834.518"/>
      <point x="620" y="672" type="curve" smooth="yes"/>
      <point x="620" y="622"/>
      <point x="624" y="570"/>
      <point x="632" y="516" type="curve" smooth="no"/>
      <point x="972" y="1044" type="line" smooth="no"/>
      <point x="944" y="1104"/>
      <point x="892" y="1148"/>
    </contour>
    <contour>
      <point x="684" y="392" type="line" smooth="no"/>
      <point x="708" y="356"/>
      <point x="748" y="332"/>
      <point x="794" y="332" type="curve" smooth="yes"/>
      <point x="1004" y="332"/>
      <point x="1012" y="572"/>
      <point x="1012" y="788" type="curve" smooth="yes"/>
      <point x="1012" y="846" type="line" smooth="yes"/>
      <point x="1012" y="866"/>
      <point x="1010" y="886"/>
      <point x="1008" y="906" type="curve" smooth="no"/>
    </contour>
  </outline>
</glyph>
<glyph name="Thorn" format="1">
  <advance width="1526"/>
  <unicode hex="00de"/>
  <outline>
    <contour>
      <point x="104" y="136" type="curve" smooth="yes"/>
      <point x="104" y="312" type="line" smooth="yes"/>
      <point x="104" y="520"/>
      <point x="108" y="724"/>
      <point x="108" y="934" type="curve" smooth="yes"/>
      <point x="108" y="1450" type="line" smooth="yes"/>
      <point x="108" y="1508"/>
      <point x="110" y="1562"/>
      <point x="132" y="1620" type="curve" smooth="no"/>
      <point x="700" y="1620" type="line" smooth="no"/>
      <point x="754.735" y="1615.02"/>
      <point x="729.388" y="1513.63"/>
      <point x="732" y="1464" type="curve" smooth="no"/>
      <point x="732" y="1380" type="line" smooth="no"/>
      <point x="812" y="1380"/>
      <point x="896" y="1378"/>
      <point x="976" y="1372" type="curve" smooth="no"/>
      <point x="1024" y="1372" type="line" smooth="yes"/>
      <point x="1288" y="1372"/>
      <point x="1520" y="1198"/>
      <point x="1520" y="868" type="curve" smooth="yes"/>
      <point x="1520" y="442"/>
      <point x="1170" y="370"/>
      <point x="932" y="346" type="curve" smooth="no"/>
      <point x="740" y="346" type="line" smooth="no"/>
      <point x="740" y="12" type="line" smooth="no"/>
      <point x="738" y="-10"/>
      <point x="722" y="-24"/>
      <point x="698" y="-24" type="curve" smooth="yes"/>
      <point x="130" y="-24" type="line" smooth="no"/>
      <point x="108" y="34"/>
      <point x="104" y="78"/>
    </contour>
    <contour>
      <point x="706" y="1040" type="curve" smooth="no"/>
      <point x="706" y="708" type="line" smooth="no"/>
      <point x="740" y="664" type="line" smooth="no"/>
      <point x="850" y="664"/>
      <point x="972" y="704"/>
      <point x="972" y="872" type="curve" smooth="yes"/>
      <point x="972" y="1042"/>
      <point x="822" y="1040"/>
    </contour>
  </outline>
</glyph>
<glyph name="germandbls" format="1">
  <advance width="1558"/>
  <unicode hex="00df"/>
  <outline>
    <contour>
      <point x="720" y="1544" type="curve" smooth="yes"/>
      <point x="1017.69" y="1544"/>
      <point x="1424" y="1494.63"/>
      <point x="1424" y="1164" type="curve" smooth="no"/>
      <point x="1426" y="1070"/>
      <point x="1380" y="990"/>
      <point x="1314" y="928" type="curve" smooth="yes"/>
      <point x="1268" y="884" type="line" smooth="no"/>
      <point x="1234" y="858"/>
      <point x="1214" y="834"/>
      <point x="1214" y="812" type="curve" smooth="yes"/>
      <point x="1214" y="770"/>
      <point x="1326" y="734"/>
      <point x="1380" y="692" type="curve" smooth="no"/>
      <point x="1504" y="614"/>
      <point x="1580" y="520"/>
      <point x="1580" y="340" type="curve" smooth="yes"/>
      <point x="1580" y="36"/>
      <point x="1282" y="-64"/>
      <point x="1070" y="-64" type="curve" smooth="yes"/>
      <point x="948" y="-64"/>
      <point x="796" y="-52"/>
      <point x="700" y="34" type="curve" smooth="no"/>
      <point x="700" y="32" type="line" smooth="no"/>
      <point x="640" y="86"/>
      <point x="618" y="148"/>
      <point x="606" y="212" type="curve" smooth="no"/>
      <point x="606" y="196"/>
      <point x="608" y="154"/>
      <point x="608" y="112" type="curve" smooth="yes"/>
      <point x="608" y="48"/>
      <point x="602" y="-18"/>
      <point x="592" y="-18" type="curve" smooth="no"/>
      <point x="590" y="-16"/>
      <point x="588" y="-16"/>
      <point x="586" y="-16" type="curve" smooth="yes"/>
      <point x="538" y="-22"/>
      <point x="492" y="-22"/>
      <point x="446" y="-22" type="curve" smooth="yes"/>
      <point x="344" y="-22"/>
      <point x="244" y="-18"/>
      <point x="148" y="-18" type="curve" smooth="yes"/>
      <point x="116" y="-18" type="line" smooth="yes"/>
      <point x="106" y="-18"/>
      <point x="96" y="-18"/>
      <point x="88" y="-20" type="curve" smooth="no"/>
      <point x="78" y="-18"/>
      <point x="72" y="-12"/>
      <point x="72" y="-4" type="curve" smooth="yes"/>
      <point x="72" y="0" type="line" smooth="yes"/>
      <point x="72" y="230"/>
      <point x="68" y="466"/>
      <point x="68" y="712" type="curve" smooth="yes"/>
      <point x="68" y="852" type="line" smooth="yes"/>
      <point x="68" y="1010"/>
      <point x="46" y="1244"/>
      <point x="170" y="1364" type="curve" smooth="yes"/>
      <point x="300" y="1490"/>
      <point x="498" y="1544"/>
    </contour>
    <contour>
      <point x="606" y="988" type="curve" smooth="yes"/>
      <point x="606" y="384" type="line" smooth="no"/>
      <point x="980" y="384" type="line" smooth="no"/>
      <point x="1044" y="378"/>
      <point x="992" y="282"/>
      <point x="1040" y="280" type="curve" smooth="yes"/>
      <point x="1048" y="280"/>
      <point x="1054" y="284"/>
      <point x="1060" y="284" type="curve" smooth="no"/>
      <point x="1060" y="284" type="line" smooth="no"/>
      <point x="1066" y="298"/>
      <point x="1072" y="310"/>
      <point x="1072" y="320" type="curve" smooth="yes"/>
      <point x="1072" y="464"/>
      <point x="664" y="528"/>
      <point x="664" y="790" type="curve" smooth="yes"/>
      <point x="664" y="874"/>
      <point x="706" y="956"/>
      <point x="772" y="1010" type="curve" smooth="yes"/>
      <point x="814" y="1044"/>
      <point x="900" y="1088"/>
      <point x="900" y="1152" type="curve" smooth="yes"/>
      <point x="900" y="1216"/>
      <point x="844" y="1236"/>
      <point x="788" y="1236" type="curve" smooth="yes"/>
      <point x="636" y="1236"/>
      <point x="606" y="1098"/>
    </contour>
    <contour>
      <point x="1046" y="276" type="line" smooth="no"/>
      <point x="1046" y="276" type="line" smooth="no"/>
    </contour>
  </outline>
</glyph>
<glyph name="ae" format="1">
  <advance width="2100"/>
  <unicode hex="00e6"/>
  <outline>
    <contour>
      <point x="1808" y="548" type="curve" smooth="no"/>
      <point x="1808" y="550" type="line" smooth="no"/>
      <point x="1728" y="550"/>
      <point x="1640" y="540"/>
      <point x="1538" y="540" type="curve" smooth="yes"/>
      <point x="1384" y="540" type="line" smooth="no"/>
      <point x="1413.49" y="426.239" type="line" smooth="no"/>
      <point x="1509.49" y="426.239"/>
      <point x="1626" y="436"/>
      <point x="1716" y="436" type="curve" smooth="yes"/>
      <point x="1846" y="436" type="line" smooth="yes"/>
      <point x="1874" y="436"/>
      <point x="1910.41" y="437.502"/>
      <point x="1926.41" y="411.502" type="curve" smooth="no"/>
      <point x="2034.16" y="48" type="line" smooth="no"/>
      <point x="1026" y="48" type="line" smooth="yes"/>
      <point x="986" y="48"/>
      <point x="936" y="44"/>
      <point x="930" y="72" type="curve" smooth="yes"/>
      <point x="892" y="224" type="line" smooth="yes"/>
      <point x="886" y="250"/>
      <point x="886" y="248"/>
      <point x="860" y="248" type="curve" smooth="yes"/>
      <point x="552" y="248" type="line" smooth="no"/>
      <point x="521.279" y="144.316"/>
      <point x="546.023" y="38"/>
      <point x="400" y="38" type="curve" smooth="yes"/>
      <point x="-39.5594" y="39.7732" type="line" smooth="no"/>
      <point x="46.7174" y="407.585" type="line" smooth="no"/>
      <point x="398.562" y="1387.98" type="line" smooth="no"/>
      <point x="1581.97" y="1379.28" type="line" smooth="no"/>
      <point x="1601.97" y="1377.28"/>
      <point x="1614" y="1372"/>
      <point x="1616" y="1358" type="curve" smooth="no"/>
      <point x="1721.7" y="1018.53" type="line" smooth="no"/>
      <point x="1721.7" y="1008.53"/>
      <point x="1714" y="1002"/>
      <point x="1700" y="992" type="curve" smooth="no"/>
      <point x="1236" y="992" type="line" smooth="no"/>
      <point x="1236" y="976"/>
      <point x="1248" y="970"/>
      <point x="1248" y="960" type="curve" smooth="yes"/>
      <point x="1248" y="890" type="line" smooth="no"/>
      <point x="1256" y="890"/>
      <point x="1278" y="888"/>
      <point x="1284" y="888" type="curve" smooth="yes"/>
      <point x="1310" y="888" type="line" smooth="yes"/>
      <point x="1428" y="888"/>
      <point x="1546" y="896"/>
      <point x="1668" y="896" type="curve" smooth="yes"/>
      <point x="1730" y="896"/>
      <point x="1726" y="852"/>
      <point x="1736" y="820" type="curve" smooth="no"/>
      <point x="1736" y="782" type="line" smooth="no"/>
      <point x="1742" y="772"/>
      <point x="1754" y="760"/>
      <point x="1760" y="744" type="curve" smooth="no"/>
      <point x="1760" y="696" type="line" smooth="no"/>
      <point x="1770" y="654"/>
      <point x="1802" y="624"/>
      <point x="1812" y="594" type="curve" smooth="no"/>
      <point x="1812" y="568" type="line" smooth="yes"/>
      <point x="1812" y="554"/>
      <point x="1818" y="548"/>
    </contour>
    <contour>
      <point x="820" y="724" type="curve" smooth="no"/>
      <point x="799.668" y="818.759"/>
      <point x="785.94" y="920.181"/>
      <point x="756" y="1010" type="curve" smooth="no"/>
      <point x="756" y="1058" type="line" smooth="no"/>
      <point x="750" y="1074"/>
      <point x="742" y="1082"/>
      <point x="728" y="1088" type="curve" smooth="no"/>
      <point x="728" y="1086" type="line" smooth="no"/>
      <point x="710.221" y="1082.05"/>
      <point x="690.118" y="1005.9"/>
      <point x="680" y="952" type="curve" smooth="no"/>
      <point x="680" y="892" type="line" smooth="no"/>
      <point x="678" y="890"/>
      <point x="664" y="886"/>
      <point x="664" y="884" type="curve" smooth="yes"/>
      <point x="646.132" y="805.201"/>
      <point x="628.213" y="726.454"/>
      <point x="610" y="648" type="curve" smooth="no"/>
      <point x="610" y="630"/>
      <point x="600" y="594"/>
      <point x="600" y="584" type="curve" smooth="no"/>
      <point x="848" y="584" type="line" smooth="no"/>
      <point x="848" y="605.51"/>
      <point x="838.034" y="646.843"/>
      <point x="832" y="676" type="curve" smooth="no"/>
      <point x="832" y="700" type="line" smooth="no"/>
      <point x="830" y="708"/>
      <point x="820" y="716"/>
    </contour>
  </outline>
</glyph>
<glyph name="thorn" format="1">
  <advance width="1366"/>
  <unicode hex="00fe"/>
  <outline>
    <contour>
      <point x="98" y="1696" type="line" smooth="no"/>
      <point x="104" y="1722"/>
      <point x="114" y="1732"/>
      <point x="170" y="1732" type="curve" smooth="yes"/>
      <point x="640" y="1732" type="line" smooth="no"/>
      <point x="640" y="1386" type="line" smooth="no"/>
      <point x="714" y="1386"/>
      <point x="790" y="1376"/>
      <point x="864" y="1376" type="curve" smooth="yes"/>
      <point x="908" y="1376" type="line" smooth="yes"/>
      <point x="1106" y="1376"/>
      <point x="1352" y="1244"/>
      <point x="1352" y="936" type="curve" smooth="yes"/>
      <point x="1352" y="774"/>
      <point x="1280" y="658"/>
      <point x="1152" y="554" type="curve" smooth="no"/>
      <point x="1056" y="504"/>
      <point x="960" y="486"/>
      <point x="856" y="480" type="curve" smooth="no"/>
      <point x="824" y="480" type="line" smooth="no"/>
      <point x="804" y="476"/>
      <point x="774" y="472"/>
      <point x="744" y="472" type="curve" smooth="yes"/>
      <point x="664" y="472" type="line" smooth="yes"/>
      <point x="662" y="472"/>
      <point x="658" y="472"/>
      <point x="654" y="470" type="curve" smooth="no"/>
      <point x="654" y="336"/>
      <point x="654" y="208"/>
      <point x="662" y="74" type="curve" smooth="no"/>
      <point x="656" y="48"/>
      <point x="638" y="40"/>
      <point x="584" y="40" type="curve" smooth="yes"/>
      <point x="112" y="40" type="line" smooth="no"/>
      <point x="108" y="50"/>
      <point x="104" y="62"/>
      <point x="102" y="72" type="curve" smooth="no"/>
      <point x="102" y="102" type="line" smooth="yes"/>
      <point x="102" y="205.333"/>
      <point x="96" y="308.667"/>
      <point x="96" y="412" type="curve" smooth="yes"/>
      <point x="96" y="706" type="line" smooth="no"/>
      <point x="94" y="914"/>
      <point x="100" y="1122"/>
      <point x="98" y="1340" type="curve" smooth="no"/>
    </contour>
    <contour>
      <point x="604" y="804" type="curve" smooth="yes"/>
      <point x="604" y="786" type="line" smooth="no"/>
      <point x="606.465" y="782.918"/>
      <point x="630" y="776.403"/>
      <point x="630" y="772" type="curve" smooth="yes"/>
      <point x="630" y="770" type="line" smooth="no"/>
      <point x="628" y="770"/>
      <point x="628" y="772"/>
      <point x="628" y="774" type="curve" smooth="no"/>
      <point x="630" y="772"/>
      <point x="634" y="772"/>
      <point x="640" y="772" type="curve" smooth="yes"/>
      <point x="746" y="772"/>
      <point x="852" y="816"/>
      <point x="852" y="936" type="curve" smooth="yes"/>
      <point x="852" y="1068"/>
      <point x="744" y="1076"/>
      <point x="634" y="1076" type="curve" smooth="no"/>
      <point x="634" y="1076" type="line" smooth="no"/>
      <point x="632" y="1074"/>
      <point x="622" y="1066"/>
      <point x="616" y="1060" type="curve" smooth="no"/>
      <point x="616" y="956" type="line" smooth="no"/>
      <point x="610" y="908"/>
      <point x="604" y="852"/>
    </contour>
  </outline>
</glyph>
<glyph name="oe" format="1">
  <advance width="1942"/>
  <unicode hex="0153"/>
  <outline>
    <contour>
      <point x="32" y="476" type="curve" smooth="yes"/>
      <point x="32" y="803.68"/>
      <point x="256.962" y="1088"/>
      <point x="594" y="1088" type="curve" smooth="yes"/>
      <point x="632" y="1088" type="line" smooth="no"/>
      <point x="644" y="1090"/>
      <point x="656" y="1090"/>
      <point x="668" y="1090" type="curve" smooth="yes"/>
      <point x="780" y="1090"/>
      <point x="894" y="1054"/>
      <point x="994" y="994" type="curve" smooth="no"/>
      <point x="1096" y="1068"/>
      <point x="1230" y="1102"/>
      <point x="1368" y="1102" type="curve" smooth="yes"/>
      <point x="1840" y="1102"/>
      <point x="1922" y="758"/>
      <point x="1922" y="508" type="curve" smooth="yes"/>
      <point x="1922" y="482"/>
      <point x="1920" y="454"/>
      <point x="1920" y="428" type="curve" smooth="no"/>
      <point x="1890" y="394" type="line" smooth="no"/>
      <point x="1216" y="394" type="line" smooth="no"/>
      <point x="1216" y="330"/>
      <point x="1234" y="256"/>
      <point x="1322" y="256" type="curve" smooth="yes"/>
      <point x="1354" y="256"/>
      <point x="1372" y="268"/>
      <point x="1388" y="284" type="curve" smooth="no"/>
      <point x="1388" y="306" type="line" smooth="no"/>
      <point x="1394" y="312"/>
      <point x="1422" y="316"/>
      <point x="1432" y="318" type="curve" smooth="no"/>
      <point x="1456" y="318"/>
      <point x="1480" y="316"/>
      <point x="1504" y="316" type="curve" smooth="yes"/>
      <point x="1614" y="316"/>
      <point x="1720" y="322"/>
      <point x="1828" y="322" type="curve" smooth="yes"/>
      <point x="1854" y="322"/>
      <point x="1884" y="318"/>
      <point x="1884" y="292" type="curve" smooth="yes"/>
      <point x="1884" y="274"/>
      <point x="1880" y="254"/>
      <point x="1872" y="232" type="curve" smooth="no"/>
      <point x="1850" y="184" type="line" smooth="no"/>
      <point x="1754" y="8"/>
      <point x="1548" y="-52"/>
      <point x="1368" y="-52" type="curve" smooth="yes"/>
      <point x="1246" y="-52"/>
      <point x="1074" y="-34"/>
      <point x="976" y="64" type="curve" smooth="no"/>
      <point x="882" y="-20"/>
      <point x="732" y="-42"/>
      <point x="616" y="-42" type="curve" smooth="yes"/>
      <point x="252" y="-42"/>
      <point x="32" y="172"/>
    </contour>
    <contour>
      <point x="504" y="516" type="curve" smooth="yes"/>
      <point x="504" y="416"/>
      <point x="516" y="230"/>
      <point x="642" y="230" type="curve" smooth="yes"/>
      <point x="790" y="230"/>
      <point x="800" y="404"/>
      <point x="800" y="508" type="curve" smooth="yes"/>
      <point x="800" y="568" type="line" smooth="yes"/>
      <point x="800" y="674"/>
      <point x="778" y="812"/>
      <point x="658" y="812" type="curve" smooth="yes"/>
      <point x="522" y="812"/>
      <point x="504" y="606"/>
    </contour>
    <contour>
      <point x="1204" y="656" type="curve" smooth="no"/>
      <point x="1204" y="636"/>
      <point x="1214" y="632"/>
      <point x="1232" y="632" type="curve" smooth="yes"/>
      <point x="1256" y="632" type="line" smooth="yes"/>
      <point x="1298" y="632"/>
      <point x="1360" y="628"/>
      <point x="1408" y="628" type="curve" smooth="yes"/>
      <point x="1470" y="628"/>
      <point x="1496" y="632"/>
      <point x="1496" y="664" type="curve" smooth="yes"/>
      <point x="1496" y="696" type="line" smooth="yes"/>
      <point x="1496" y="750"/>
      <point x="1440" y="836"/>
      <point x="1344" y="836" type="curve" smooth="yes"/>
      <point x="1262" y="836"/>
      <point x="1210" y="754"/>
    </contour>
  </outline>
</glyph>
<glyph name="caron" format="1">
  <advance width="710"/>
  <unicode hex="02c7"/>
  <outline>
    <contour>
      <point x="-138.998" y="1718.08" type="line" smooth="no"/>
      <point x="-138.998" y="1732.08"/>
      <point x="-126" y="1744"/>
      <point x="-108" y="1752" type="curve" smooth="no"/>
      <point x="2" y="1752"/>
      <point x="98" y="1744"/>
      <point x="212" y="1744" type="curve" smooth="yes"/>
      <point x="264" y="1744"/>
      <point x="282" y="1740"/>
      <point x="322" y="1670" type="curve" smooth="yes"/>
      <point x="360" y="1604" type="line" smooth="no"/>
      <point x="392" y="1646"/>
      <point x="420" y="1702"/>
      <point x="452" y="1744" type="curve" smooth="no"/>
      <point x="538" y="1744"/>
      <point x="616" y="1742"/>
      <point x="698" y="1742" type="curve" smooth="yes"/>
      <point x="826" y="1742" type="line" smooth="yes"/>
      <point x="838" y="1742"/>
      <point x="844" y="1734"/>
      <point x="844" y="1720" type="curve" smooth="yes"/>
      <point x="844" y="1696"/>
      <point x="814" y="1658"/>
      <point x="792" y="1626" type="curve" smooth="yes"/>
      <point x="753.957" y="1571.38"/>
      <point x="715.713" y="1516.95"/>
      <point x="680" y="1460" type="curve" smooth="no"/>
      <point x="636" y="1394"/>
      <point x="628" y="1344"/>
      <point x="500" y="1344" type="curve" smooth="yes"/>
      <point x="100" y="1344" type="line" smooth="no"/>
    </contour>
  </outline>
</glyph>
<glyph name="dotaccent" format="1">
  <advance width="654"/>
  <unicode hex="02d9"/>
  <outline>
    <contour>
      <point x="142" y="1140" type="line" smooth="no"/>
      <point x="144" y="1242"/>
      <point x="138" y="1338"/>
      <point x="138" y="1440" type="curve" smooth="yes"/>
      <point x="138" y="1464"/>
      <point x="140" y="1492"/>
      <point x="166" y="1492" type="curve" smooth="yes"/>
      <point x="500" y="1492" type="line" smooth="no"/>
      <point x="518" y="1486"/>
      <point x="522" y="1466"/>
      <point x="522" y="1442" type="curve" smooth="yes"/>
      <point x="522" y="1432"/>
      <point x="520" y="1418"/>
      <point x="520" y="1404" type="curve" smooth="yes"/>
      <point x="520" y="1318" type="line" smooth="yes"/>
      <point x="520" y="1276"/>
      <point x="526" y="1234"/>
      <point x="526" y="1192" type="curve" smooth="yes"/>
      <point x="526" y="1160" type="line" smooth="no"/>
      <point x="524" y="1150"/>
      <point x="524" y="1138"/>
      <point x="524" y="1126" type="curve" smooth="no"/>
      <point x="518" y="1100"/>
      <point x="472" y="1096"/>
      <point x="424" y="1096" type="curve" smooth="yes"/>
      <point x="142" y="1096" type="line" smooth="no"/>
    </contour>
  </outline>
</glyph>
<glyph name="ogonek" format="1">
  <advance width="632"/>
  <unicode hex="02db"/>
  <outline>
    <contour>
      <point x="112" y="-288" type="curve" smooth="yes"/>
      <point x="112" y="-128"/>
      <point x="274" y="14"/>
      <point x="410" y="44" type="curve" smooth="no"/>
      <point x="422" y="42"/>
      <point x="610" y="44"/>
      <point x="610" y="44" type="curve" smooth="no"/>
      <point x="610" y="44" type="line" smooth="no"/>
      <point x="610" y="42"/>
      <point x="646" y="22"/>
      <point x="646" y="4" type="curve" smooth="no"/>
      <point x="556" y="-62" type="line" smooth="no"/>
      <point x="486" y="-106"/>
      <point x="418" y="-170"/>
      <point x="418" y="-228" type="curve" smooth="yes"/>
      <point x="418" y="-276"/>
      <point x="462" y="-292"/>
      <point x="512" y="-292" type="curve" smooth="no"/>
      <point x="612" y="-274"/>
      <point x="618" y="-272"/>
      <point x="624" y="-272" type="curve" smooth="yes"/>
      <point x="644" y="-272"/>
      <point x="662" y="-326"/>
      <point x="672" y="-380" type="curve" smooth="no"/>
      <point x="672" y="-424" type="line" smooth="yes"/>
      <point x="672" y="-466"/>
      <point x="484" y="-488"/>
      <point x="396" y="-488" type="curve" smooth="yes"/>
      <point x="246" y="-488"/>
      <point x="112" y="-438"/>
    </contour>
  </outline>
</glyph>
<glyph name="uni030F" format="1">
  <advance width="782"/>
  <unicode hex="030f"/>
  <outline>
    <contour>
      <point x="468" y="1356" type="line" smooth="no"/>
      <point x="130" y="1356" type="line" smooth="yes"/>
      <point x="54" y="1356"/>
      <point x="50" y="1382"/>
      <point x="0" y="1442" type="curve" smooth="no"/>
      <point x="-247.805" y="1752" type="line" smooth="no"/>
      <point x="253.06" y="1757.48" type="line" smooth="no"/>
      <point x="468" y="1402" type="line" smooth="no"/>
    </contour>
    <contour>
      <point x="390.321" y="1727.01" type="line" smooth="no"/>
      <point x="390.321" y="1737.01"/>
      <point x="402" y="1750"/>
      <point x="414" y="1752" type="curve" smooth="no"/>
      <point x="500" y="1752"/>
      <point x="588" y="1758"/>
      <point x="670" y="1760" type="curve" smooth="no"/>
      <point x="884" y="1760" type="line" smooth="no"/>
      <point x="963.159" y="1643.83"/>
      <point x="1032.17" y="1521.5"/>
      <point x="1106" y="1400" type="curve" smooth="no"/>
      <point x="1100" y="1392"/>
      <point x="1098" y="1384"/>
      <point x="1092" y="1376" type="curve" smooth="no"/>
      <point x="1092" y="1352" type="line" smooth="no"/>
      <point x="860" y="1352" type="line" smooth="yes"/>
      <point x="744" y="1352"/>
      <point x="720" y="1352"/>
      <point x="648" y="1434" type="curve" smooth="yes"/>
    </contour>
  </outline>
</glyph>
<glyph name="pi" format="1">
  <advance width="1586"/>
  <unicode hex="03c0"/>
  <outline>
    <contour>
      <point x="-18" y="1060" type="curve" smooth="no"/>
      <point x="-18" y="1162"/>
      <point x="320" y="1176"/>
      <point x="460" y="1176" type="curve" smooth="no"/>
      <point x="548" y="1182"/>
      <point x="634" y="1184"/>
      <point x="724" y="1184" type="curve" smooth="yes"/>
      <point x="884" y="1184"/>
      <point x="1044" y="1180"/>
      <point x="1204" y="1180" type="curve" smooth="yes"/>
      <point x="1324" y="1180"/>
      <point x="1438" y="1182"/>
      <point x="1556" y="1190" type="curve" smooth="no"/>
      <point x="1578" y="1186"/>
      <point x="1590" y="1174"/>
      <point x="1594" y="1156" type="curve" smooth="no"/>
      <point x="1563.16" y="814.437" type="line" smooth="no"/>
      <point x="1522" y="780" type="line" smooth="no"/>
      <point x="1478" y="780" type="line" smooth="yes"/>
      <point x="1456" y="780"/>
      <point x="1434" y="780"/>
      <point x="1410" y="776" type="curve" smooth="no"/>
      <point x="1408" y="632"/>
      <point x="1404" y="488"/>
      <point x="1404" y="342" type="curve" smooth="yes"/>
      <point x="1404" y="236"/>
      <point x="1406" y="128"/>
      <point x="1430" y="14" type="curve" smooth="no"/>
      <point x="1430" y="-10"/>
      <point x="1422" y="-22"/>
      <point x="1396" y="-32" type="curve" smooth="no"/>
      <point x="964" y="-32" type="line" smooth="no"/>
      <point x="898" y="-16"/>
      <point x="898" y="184"/>
      <point x="898" y="280" type="curve" smooth="yes"/>
      <point x="898" y="790" type="line" smooth="no"/>
      <point x="726" y="790" type="line" smooth="no"/>
      <point x="714" y="546"/>
      <point x="650" y="-20"/>
      <point x="576" y="-20" type="curve" smooth="yes"/>
      <point x="502" y="-20"/>
      <point x="426" y="-18"/>
      <point x="352" y="-16" type="curve" smooth="no"/>
      <point x="132" y="-16" type="line" smooth="no"/>
      <point x="124" y="-10"/>
      <point x="120" y="2"/>
      <point x="120" y="12" type="curve" smooth="yes"/>
      <point x="120" y="18"/>
      <point x="120" y="24"/>
      <point x="122" y="26" type="curve" smooth="no"/>
      <point x="122" y="24" type="line" smooth="no"/>
      <point x="186" y="266"/>
      <point x="236" y="518"/>
      <point x="238" y="768" type="curve" smooth="no"/>
      <point x="236" y="782"/>
      <point x="234" y="788"/>
      <point x="228" y="790" type="curve" smooth="no"/>
      <point x="170" y="790"/>
      <point x="110" y="784"/>
      <point x="52" y="772" type="curve" smooth="no"/>
      <point x="10" y="772"/>
      <point x="-10" y="990"/>
    </contour>
  </outline>
</glyph>
<glyph name="emdash" format="1">
  <advance width="2046"/>
  <unicode hex="2014"/>
  <outline>
    <contour>
      <point x="-4" y="740" type="curve" smooth="yes"/>
      <point x="2036" y="740" type="line" smooth="no"/>
      <point x="2060" y="734"/>
      <point x="2060" y="722"/>
      <point x="2060" y="704" type="curve" smooth="yes"/>
      <point x="2058" y="638"/>
      <point x="2058" y="584"/>
      <point x="2056" y="526" type="curve" smooth="no"/>
      <point x="2056" y="386" type="line" smooth="no"/>
      <point x="2054" y="376"/>
      <point x="2040" y="370"/>
      <point x="2024" y="368" type="curve" smooth="no"/>
      <point x="1794" y="374"/>
      <point x="1578" y="374"/>
      <point x="1342" y="374" type="curve" smooth="no"/>
      <point x="944" y="372"/>
      <point x="554" y="366"/>
      <point x="160" y="350" type="curve" smooth="no"/>
      <point x="12" y="350" type="line" smooth="no"/>
      <point x="-18" y="392" type="line" smooth="no"/>
      <point x="-18" y="472"/>
      <point x="-20" y="552"/>
      <point x="-20" y="640" type="curve" smooth="yes"/>
      <point x="-20" y="680"/>
      <point x="-18" y="740"/>
    </contour>
  </outline>
</glyph>
<glyph name="quotesinglbase" format="1">
  <advance width="728"/>
  <unicode hex="201a"/>
  <outline>
    <contour>
      <point x="32.3774" y="-224" type="line" smooth="no"/>
      <point x="96" y="132" type="line" smooth="no"/>
      <point x="114" y="208"/>
      <point x="166" y="446"/>
      <point x="196" y="446" type="curve" smooth="no"/>
      <point x="228" y="448"/>
      <point x="264" y="444"/>
      <point x="300" y="444" type="curve" smooth="yes"/>
      <point x="400" y="444" type="line" smooth="yes"/>
      <point x="426" y="444"/>
      <point x="472" y="446"/>
      <point x="520" y="446" type="curve" smooth="yes"/>
      <point x="602" y="446"/>
      <point x="688" y="440"/>
      <point x="688" y="416" type="curve" smooth="yes"/>
      <point x="688" y="404" type="line" smooth="no"/>
      <point x="635.233" y="251.433"/>
      <point x="583.746" y="97.5873"/>
      <point x="528" y="-52" type="curve" smooth="no"/>
      <point x="470" y="-198" type="line" smooth="no"/>
      <point x="452" y="-222"/>
      <point x="352" y="-224"/>
      <point x="252" y="-224" type="curve" smooth="yes"/>
    </contour>
  </outline>
</glyph>
<glyph name="ellipsis" format="1">
  <advance width="2074"/>
  <unicode hex="2026"/>
  <outline>
    <contour>
      <point x="80" y="28" type="curve" smooth="yes"/>
      <point x="80" y="44" type="line" smooth="yes"/>
      <point x="80" y="76"/>
      <point x="84" y="106"/>
      <point x="84" y="144" type="curve" smooth="yes"/>
      <point x="84" y="196" type="line" smooth="yes"/>
      <point x="84" y="288"/>
      <point x="86" y="440"/>
      <point x="116" y="440" type="curve" smooth="yes"/>
      <point x="524" y="440" type="line" smooth="yes"/>
      <point x="572" y="440"/>
      <point x="622" y="436"/>
      <point x="622" y="412" type="curve" smooth="yes"/>
      <point x="622" y="-18" type="line" smooth="no"/>
      <point x="620" y="-18"/>
      <point x="602" y="-16"/>
      <point x="600" y="-16" type="curve" smooth="yes"/>
      <point x="474" y="-24"/>
      <point x="350" y="-26"/>
      <point x="222" y="-32" type="curve" smooth="no"/>
      <point x="114" y="-32" type="line" smooth="no"/>
      <point x="82" y="14" type="line" smooth="yes"/>
      <point x="80" y="18"/>
      <point x="80" y="22"/>
    </contour>
    <contour>
      <point x="758" y="40" type="curve" smooth="no"/>
      <point x="758" y="72" type="line" smooth="yes"/>
      <point x="758" y="184"/>
      <point x="762" y="300"/>
      <point x="768" y="414" type="curve" smooth="no"/>
      <point x="768" y="440"/>
      <point x="930" y="444"/>
      <point x="1038" y="444" type="curve" smooth="yes"/>
      <point x="1180" y="444" type="line" smooth="yes"/>
      <point x="1232" y="444"/>
      <point x="1294" y="438"/>
      <point x="1300" y="416" type="curve" smooth="no"/>
      <point x="1300" y="6" type="line" smooth="no"/>
      <point x="1290" y="-24"/>
      <point x="1092" y="-32"/>
      <point x="972" y="-32" type="curve" smooth="yes"/>
      <point x="790" y="-32" type="line" smooth="no"/>
      <point x="760" y="12" type="line" smooth="no"/>
      <point x="760" y="20"/>
      <point x="760" y="30"/>
    </contour>
    <contour>
      <point x="1434" y="88" type="curve" smooth="yes"/>
      <point x="1434" y="194"/>
      <point x="1438" y="304"/>
      <point x="1444" y="416" type="curve" smooth="no"/>
      <point x="1444" y="444"/>
      <point x="1556" y="446"/>
      <point x="1608" y="446" type="curve" smooth="yes"/>
      <point x="1674" y="446"/>
      <point x="1734" y="444"/>
      <point x="1804" y="444" type="curve" smooth="no"/>
      <point x="1854" y="438"/>
      <point x="1966" y="446"/>
      <point x="1976" y="418" type="curve" smooth="no"/>
      <point x="1976" y="348"/>
      <point x="1978" y="282"/>
      <point x="1978" y="210" type="curve" smooth="yes"/>
      <point x="1978" y="188"/>
      <point x="1976" y="170"/>
      <point x="1976" y="148" type="curve" smooth="yes"/>
      <point x="1976" y="76" type="line" smooth="no"/>
      <point x="1978" y="52"/>
      <point x="1980" y="28"/>
      <point x="1980" y="4" type="curve" smooth="no"/>
      <point x="1970" y="-26"/>
      <point x="1818" y="-32"/>
      <point x="1700" y="-32" type="curve" smooth="yes"/>
      <point x="1626" y="-32"/>
      <point x="1570" y="-30"/>
      <point x="1564" y="-30" type="curve" smooth="yes"/>
      <point x="1468" y="-30" type="line" smooth="no"/>
      <point x="1436" y="12" type="line" smooth="no"/>
      <point x="1436" y="36"/>
      <point x="1434" y="62"/>
    </contour>
  </outline>
</glyph>
<glyph name="fraction" format="1">
  <advance width="550"/>
  <unicode hex="2044"/>
  <outline>
    <contour>
      <point x="-252" y="2" type="line" smooth="no"/>
      <point x="-79.7829" y="318.45"/>
      <point x="87.0295" y="640.304"/>
      <point x="256" y="960" type="curve" smooth="yes"/>
      <point x="569.337" y="1550.72" type="line" smooth="no"/>
      <point x="641.337" y="1550.72"/>
      <point x="720" y="1542"/>
      <point x="792" y="1542" type="curve" smooth="no"/>
      <point x="792" y="1544" type="line" smooth="no"/>
      <point x="808" y="1544"/>
      <point x="814" y="1534"/>
      <point x="820" y="1532" type="curve" smooth="no"/>
      <point x="609.936" y="1138.06"/>
      <point x="407.916" y="736.084"/>
      <point x="204" y="336" type="curve" smooth="no"/>
      <point x="0" y="-60" type="line" smooth="yes"/>
      <point x="-8" y="-76"/>
      <point x="-20" y="-80"/>
      <point x="-36" y="-82" type="curve" smooth="no"/>
      <point x="-46" y="-82"/>
      <point x="-56" y="-80"/>
      <point x="-70" y="-80" type="curve" smooth="yes"/>
      <point x="-124" y="-80"/>
      <point x="-176" y="-82"/>
      <point x="-224" y="-82" type="curve" smooth="no"/>
      <point x="-224" y="-40" type="line" smooth="no"/>
    </contour>
  </outline>
</glyph>
<glyph name="Euro" format="1">
  <advance width="1444"/>
  <unicode hex="20ac"/>
  <outline>
    <contour>
      <point x="1460" y="380" type="curve" smooth="no"/>
      <point x="1427.56" y="49.0912"/>
      <point x="1090.47" y="-52.0873"/>
      <point x="812" y="-68" type="curve" smooth="no"/>
      <point x="732" y="-68"/>
      <point x="620" y="-48"/>
      <point x="560" y="-26" type="curve" smooth="no"/>
      <point x="532" y="-26" type="line" smooth="no"/>
      <point x="518" y="-20"/>
      <point x="510" y="-10"/>
      <point x="500" y="-4" type="curve" smooth="yes"/>
      <point x="440" y="32" type="line" smooth="no"/>
      <point x="270" y="116"/>
      <point x="198" y="296"/>
      <point x="150" y="456" type="curve" smooth="no"/>
      <point x="18" y="456" type="line" smooth="no"/>
      <point x="2" y="462"/>
      <point x="-4" y="468"/>
      <point x="-4" y="486" type="curve" smooth="no"/>
      <point x="12" y="540"/>
      <point x="44" y="682"/>
      <point x="72" y="692" type="curve" smooth="no"/>
      <point x="120" y="692" type="line" smooth="no"/>
      <point x="120" y="714"/>
      <point x="122" y="734"/>
      <point x="122" y="756" type="curve" smooth="no"/>
      <point x="68" y="756" type="line" smooth="yes"/>
      <point x="32" y="756"/>
      <point x="0" y="760"/>
      <point x="0" y="784" type="curve" smooth="no"/>
      <point x="60.0787" y="995.388" type="line" smooth="no"/>
      <point x="156" y="992" type="line" smooth="no"/>
      <point x="198" y="1162"/>
      <point x="280" y="1316"/>
      <point x="446" y="1412" type="curve" smooth="no"/>
      <point x="508" y="1444" type="line" smooth="no"/>
      <point x="542.848" y="1455.15"/>
      <point x="576.22" y="1467.78"/>
      <point x="610" y="1480" type="curve" smooth="no"/>
      <point x="678" y="1496"/>
      <point x="790" y="1500"/>
      <point x="844" y="1500" type="curve" smooth="yes"/>
      <point x="1107" y="1500"/>
      <point x="1400" y="1400"/>
      <point x="1438" y="1186" type="curve" smooth="no"/>
      <point x="1438" y="1126" type="line" smooth="no"/>
      <point x="1436" y="1112"/>
      <point x="1438" y="1106"/>
      <point x="1428" y="1104" type="curve" smooth="no"/>
      <point x="968" y="1104" type="line" smooth="no"/>
      <point x="968" y="1182"/>
      <point x="920" y="1266"/>
      <point x="822" y="1266" type="curve" smooth="yes"/>
      <point x="704" y="1266"/>
      <point x="690" y="996"/>
      <point x="690" y="996" type="curve" smooth="no"/>
      <point x="1040" y="996" type="line" smooth="no"/>
      <point x="1062" y="994"/>
      <point x="1068" y="982"/>
      <point x="1068" y="960" type="curve" smooth="no"/>
      <point x="1040" y="868" type="line" smooth="no"/>
      <point x="1016" y="772" type="line" smooth="no"/>
      <point x="1010" y="762"/>
      <point x="1002" y="756"/>
      <point x="992" y="756" type="curve" smooth="yes"/>
      <point x="896" y="756" type="line" smooth="no"/>
      <point x="866" y="754"/>
      <point x="836" y="750"/>
      <point x="804" y="750" type="curve" smooth="yes"/>
      <point x="766" y="750"/>
      <point x="726" y="752"/>
      <point x="688" y="752" type="curve" smooth="no"/>
      <point x="688" y="696" type="line" smooth="no"/>
      <point x="726" y="698"/>
      <point x="766" y="700"/>
      <point x="804" y="700" type="curve" smooth="yes"/>
      <point x="826" y="700"/>
      <point x="846" y="698"/>
      <point x="870" y="698" type="curve" smooth="yes"/>
      <point x="896" y="698"/>
      <point x="926" y="700"/>
      <point x="952" y="700" type="curve" smooth="no"/>
      <point x="974" y="698"/>
      <point x="986.969" y="687.023"/>
      <point x="986.969" y="669.023" type="curve" smooth="no"/>
      <point x="932" y="502" type="line" smooth="no"/>
      <point x="866" y="506"/>
      <point x="768" y="502"/>
      <point x="704" y="502" type="curve" smooth="no"/>
      <point x="714" y="436"/>
      <point x="732" y="192"/>
      <point x="860" y="192" type="curve" smooth="yes"/>
      <point x="980" y="192"/>
      <point x="1008" y="314"/>
      <point x="1008" y="388" type="curve" smooth="no"/>
      <point x="1424" y="414" type="line" smooth="no"/>
      <point x="1446" y="412"/>
      <point x="1454" y="404"/>
    </contour>
  </outline>
</glyph>
<glyph name="infinity" format="1">
  <advance width="1810"/>
  <unicode hex="221e"/>
  <outline>
    <contour>
      <point x="100" y="606" type="curve" smooth="yes"/>
      <point x="100" y="828"/>
      <point x="254" y="1042"/>
      <point x="520" y="1042" type="curve" smooth="yes"/>
      <point x="700" y="1042"/>
      <point x="816" y="924"/>
      <point x="916" y="756" type="curve" smooth="no"/>
      <point x="1012" y="926"/>
      <point x="1172" y="1048"/>
      <point x="1320" y="1048" type="curve" smooth="yes"/>
      <point x="1582" y="1048"/>
      <point x="1704" y="818"/>
      <point x="1720" y="624" type="curve" smooth="no"/>
      <point x="1720" y="620" type="line" smooth="yes"/>
      <point x="1720" y="346"/>
      <point x="1536" y="168"/>
      <point x="1292" y="168" type="curve" smooth="yes"/>
      <point x="1114" y="168"/>
      <point x="990" y="288"/>
      <point x="904" y="442" type="curve" smooth="no"/>
      <point x="818" y="314"/>
      <point x="686" y="184"/>
      <point x="564" y="184" type="curve" smooth="yes"/>
      <point x="516" y="184" type="line" smooth="yes"/>
      <point x="272" y="184"/>
      <point x="100" y="376"/>
    </contour>
    <contour>
      <point x="512" y="376" type="curve" smooth="yes"/>
      <point x="540" y="376" type="line" smooth="yes"/>
      <point x="624" y="376"/>
      <point x="720" y="494"/>
      <point x="804" y="632" type="curve" smooth="no"/>
      <point x="722" y="760"/>
      <point x="634" y="838"/>
      <point x="514" y="844" type="curve" smooth="no"/>
      <point x="372" y="844"/>
      <point x="284" y="726"/>
      <point x="284" y="604" type="curve" smooth="yes"/>
      <point x="284" y="480"/>
      <point x="378" y="376"/>
    </contour>
    <contour>
      <point x="980" y="628" type="curve" smooth="no"/>
      <point x="1066" y="476"/>
      <point x="1180" y="376"/>
      <point x="1320" y="376" type="curve" smooth="yes"/>
      <point x="1468" y="376"/>
      <point x="1580" y="474"/>
      <point x="1580" y="626" type="curve" smooth="no"/>
      <point x="1564" y="740"/>
      <point x="1490" y="860"/>
      <point x="1336" y="860" type="curve" smooth="yes"/>
      <point x="1218" y="860"/>
      <point x="1078" y="770"/>
    </contour>
  </outline>
</glyph>
<glyph name="approxequal" format="1">
  <advance width="1322"/>
  <unicode hex="2248"/>
  <outline>
    <contour>
      <point x="38.8777" y="348.138" type="line" smooth="no"/>
      <point x="134.878" y="480.138"/>
      <point x="292" y="612"/>
      <point x="460" y="612" type="curve" smooth="yes"/>
      <point x="618" y="612"/>
      <point x="760" y="464"/>
      <point x="880" y="464" type="curve" smooth="yes"/>
      <point x="950" y="464"/>
      <point x="1012" y="534"/>
      <point x="1076" y="614" type="curve" smooth="no"/>
      <point x="1128" y="614" type="line" smooth="no"/>
      <point x="1285.59" y="441.092" type="line" smooth="no"/>
      <point x="1285.59" y="433.092"/>
      <point x="1278" y="422"/>
      <point x="1272" y="420" type="curve" smooth="no"/>
      <point x="1186" y="290"/>
      <point x="1060" y="170"/>
      <point x="906" y="170" type="curve" smooth="no"/>
      <point x="808" y="172"/>
      <point x="732" y="206"/>
      <point x="658" y="248" type="curve" smooth="yes"/>
      <point x="586" y="288" type="line" smooth="yes"/>
      <point x="540" y="314"/>
      <point x="488" y="328"/>
      <point x="440" y="328" type="curve" smooth="no"/>
      <point x="396" y="330"/>
      <point x="342" y="310"/>
      <point x="296" y="262" type="curve" smooth="yes"/>
      <point x="262" y="226" type="line" smooth="yes"/>
      <point x="240" y="202"/>
      <point x="224.991" y="185.233"/>
      <point x="214.991" y="185.233" type="curve" smooth="no"/>
    </contour>
    <contour>
      <point x="41.8686" y="801.372" type="line" smooth="no"/>
      <point x="143.869" y="967.372"/>
      <point x="284" y="1072"/>
      <point x="460" y="1072" type="curve" smooth="yes"/>
      <point x="520" y="1072"/>
      <point x="594" y="1060"/>
      <point x="656" y="1024" type="curve" smooth="yes"/>
      <point x="736" y="978" type="line" smooth="yes"/>
      <point x="788" y="948"/>
      <point x="832" y="920"/>
      <point x="876" y="920" type="curve" smooth="yes"/>
      <point x="940" y="920"/>
      <point x="1006" y="974"/>
      <point x="1076" y="1070" type="curve" smooth="no"/>
      <point x="1128" y="1070" type="line" smooth="no"/>
      <point x="1284.59" y="898.185" type="line" smooth="no"/>
      <point x="1284.59" y="892.185"/>
      <point x="1276" y="882"/>
      <point x="1272" y="872" type="curve" smooth="no"/>
      <point x="1174" y="742"/>
      <point x="1056" y="624"/>
      <point x="894" y="624" type="curve" smooth="yes"/>
      <point x="884" y="624"/>
      <point x="874" y="624"/>
      <point x="864" y="626" type="curve" smooth="no"/>
      <point x="832" y="626" type="line" smooth="no"/>
      <point x="692" y="648"/>
      <point x="568" y="790"/>
      <point x="444" y="790" type="curve" smooth="yes"/>
      <point x="402" y="790"/>
      <point x="338" y="768"/>
      <point x="296" y="718" type="curve" smooth="no"/>
      <point x="218.79" y="637.719" type="line" smooth="no"/>
    </contour>
  </outline>
</glyph>
<glyph name="greaterequal" format="1">
  <advance width="1354"/>
  <unicode hex="2265"/>
  <outline>
    <contour>
      <point x="116" y="-52" type="line" smooth="no"/>
      <point x="116" y="230" type="line" smooth="no"/>
      <point x="1212" y="230" type="line" smooth="no"/>
      <point x="1230" y="228"/>
      <point x="1242" y="226"/>
      <point x="1244" y="208" type="curve" smooth="no"/>
      <point x="1244" y="-32" type="line" smooth="no"/>
      <point x="1208" y="-84" type="line" smooth="no"/>
    </contour>
    <contour>
      <point x="104" y="1484" type="line" smooth="no"/>
      <point x="160" y="1536" type="line" smooth="no"/>
      <point x="1253.9" y="1020.51" type="line" smooth="no"/>
      <point x="1247.77" y="747.825" type="line" smooth="no"/>
      <point x="120" y="260.403" type="line" smooth="no"/>
      <point x="120" y="540" type="line" smooth="no"/>
      <point x="370" y="676"/>
      <point x="654" y="788"/>
      <point x="920" y="884" type="curve" smooth="no"/>
      <point x="104" y="1200" type="line" smooth="no"/>
    </contour>
  </outline>
</glyph>
<glyph name="uni278A" format="1">
  <advance width="1714"/>
  <unicode hex="278a"/>
  <outline>
    <contour>
      <point x="58" y="496" type="curve" smooth="no"/>
      <point x="58" y="504" type="line" smooth="no"/>
      <point x="88" y="886"/>
      <point x="346" y="1288"/>
      <point x="852" y="1288" type="curve" smooth="yes"/>
      <point x="1268" y="1288"/>
      <point x="1656" y="956"/>
      <point x="1656" y="504" type="curve" smooth="yes"/>
      <point x="1656" y="56"/>
      <point x="1284" y="-276"/>
      <point x="868" y="-276" type="curve" smooth="yes"/>
      <point x="368" y="-276"/>
      <point x="90" y="122"/>
    </contour>
    <contour>
      <point x="648" y="34" type="curve" smooth="yes"/>
      <point x="648" y="-9.66499"/>
      <point x="668.012" y="-22"/>
      <point x="712" y="-22" type="curve" smooth="yes"/>
      <point x="750" y="-22" type="line" smooth="yes"/>
      <point x="804" y="-22"/>
      <point x="858" y="-20"/>
      <point x="912" y="-20" type="curve" smooth="yes"/>
      <point x="928" y="-20"/>
      <point x="954" y="-22"/>
      <point x="980" y="-22" type="curve" smooth="yes"/>
      <point x="1024" y="-22"/>
      <point x="1080" y="-20"/>
      <point x="1080" y="4" type="curve" smooth="yes"/>
      <point x="1080" y="258"/>
      <point x="1072" y="514"/>
      <point x="1072" y="764" type="curve" smooth="yes"/>
      <point x="1072" y="1052" type="line" smooth="no"/>
      <point x="1062" y="1050"/>
      <point x="1038" y="1050"/>
      <point x="1030" y="1050" type="curve" smooth="yes"/>
      <point x="1002" y="1050" type="line" smooth="yes"/>
      <point x="976" y="1050"/>
      <point x="952" y="1048"/>
      <point x="926" y="1048" type="curve" smooth="yes"/>
      <point x="866" y="1048"/>
      <point x="808" y="1050"/>
      <point x="750" y="1052" type="curve" smooth="no"/>
      <point x="718" y="998"/>
      <point x="630" y="952"/>
      <point x="576" y="926" type="curve" smooth="yes"/>
      <point x="444" y="864" type="line" smooth="no"/>
      <point x="434" y="864"/>
      <point x="434" y="764"/>
      <point x="434" y="672" type="curve" smooth="yes"/>
      <point x="434" y="572" type="line" smooth="no"/>
      <point x="436" y="558"/>
      <point x="444" y="552"/>
      <point x="458" y="552" type="curve" smooth="no"/>
      <point x="528" y="576"/>
      <point x="594" y="608"/>
      <point x="656" y="648" type="curve" smooth="no"/>
      <point x="650" y="434"/>
      <point x="648" y="250"/>
    </contour>
  </outline>
</glyph>
<glyph name="uni278B" format="1">
  <advance width="1718"/>
  <unicode hex="278b"/>
  <outline>
    <contour>
      <point x="100" y="440" type="curve" smooth="yes"/>
      <point x="100" y="458"/>
      <point x="100" y="478"/>
      <point x="102" y="496" type="curve" smooth="no"/>
      <point x="102" y="552" type="line" smooth="no"/>
      <point x="134" y="934"/>
      <point x="374" y="1288"/>
      <point x="856" y="1288" type="curve" smooth="yes"/>
      <point x="1272" y="1288"/>
      <point x="1660" y="956"/>
      <point x="1660" y="504" type="curve" smooth="yes"/>
      <point x="1660" y="56"/>
      <point x="1288" y="-276"/>
      <point x="872" y="-276" type="curve" smooth="yes"/>
      <point x="418" y="-276"/>
      <point x="100" y="84"/>
    </contour>
    <contour>
      <point x="968" y="284" type="curve" smooth="no"/>
      <point x="1123.75" y="439.748"/>
      <point x="1336" y="503.516"/>
      <point x="1336" y="754" type="curve" smooth="yes"/>
      <point x="1336" y="986"/>
      <point x="1108" y="1080"/>
      <point x="872" y="1080" type="curve" smooth="yes"/>
      <point x="624" y="1080"/>
      <point x="414" y="978"/>
      <point x="400" y="692" type="curve" smooth="no"/>
      <point x="784" y="692" type="line" smooth="no"/>
      <point x="784" y="752" type="line" smooth="no"/>
      <point x="790" y="778"/>
      <point x="814" y="806"/>
      <point x="856" y="806" type="curve" smooth="yes"/>
      <point x="894" y="806"/>
      <point x="920" y="782"/>
      <point x="920" y="744" type="curve" smooth="yes"/>
      <point x="920" y="698"/>
      <point x="892" y="652"/>
      <point x="848" y="608" type="curve" smooth="yes"/>
      <point x="812" y="572" type="line" smooth="no"/>
      <point x="720.6" y="492.025"/>
      <point x="617.279" y="425.701"/>
      <point x="516" y="356" type="curve" smooth="no"/>
      <point x="448" y="312" type="line" smooth="yes"/>
      <point x="414" y="290"/>
      <point x="402" y="272"/>
      <point x="402" y="264" type="curve" smooth="yes"/>
      <point x="402" y="200"/>
      <point x="398" y="146"/>
      <point x="398" y="76" type="curve" smooth="yes"/>
      <point x="398" y="25.7946"/>
      <point x="408.537" y="3.94058"/>
      <point x="426" y="-24" type="curve" smooth="no"/>
      <point x="632" y="-16"/>
      <point x="832" y="-10"/>
      <point x="1038" y="-10" type="curve" smooth="yes"/>
      <point x="1102" y="-10"/>
      <point x="1178" y="-16"/>
      <point x="1264" y="-16" type="curve" smooth="yes"/>
      <point x="1316" y="-16" type="line" smooth="yes"/>
      <point x="1342" y="-16"/>
      <point x="1344" y="2"/>
      <point x="1344" y="16" type="curve" smooth="yes"/>
      <point x="1344" y="30" type="line" smooth="yes"/>
      <point x="1344" y="78"/>
      <point x="1348" y="122"/>
      <point x="1348" y="162" type="curve" smooth="yes"/>
      <point x="1348" y="234"/>
      <point x="1334" y="288"/>
      <point x="1264" y="288" type="curve" smooth="yes"/>
      <point x="1162" y="288"/>
      <point x="1064" y="284"/>
    </contour>
  </outline>
</glyph>
<glyph name="uni2791" format="1">
  <advance width="1714"/>
  <unicode hex="2791"/>
  <outline>
    <contour>
      <point x="58" y="496" type="curve" smooth="no"/>
      <point x="58" y="504" type="line" smooth="no"/>
      <point x="88" y="886"/>
      <point x="346" y="1288"/>
      <point x="852" y="1288" type="curve" smooth="yes"/>
      <point x="1268" y="1288"/>
      <point x="1656" y="956"/>
      <point x="1656" y="504" type="curve" smooth="yes"/>
      <point x="1656" y="56"/>
      <point x="1284" y="-276"/>
      <point x="868" y="-276" type="curve" smooth="yes"/>
      <point x="368" y="-276"/>
      <point x="90" y="122"/>
    </contour>
    <contour>
      <point x="376" y="276" type="curve" smooth="no"/>
      <point x="392" y="128"/>
      <point x="466" y="-40"/>
      <point x="838" y="-40" type="curve" smooth="yes"/>
      <point x="1080" y="-40"/>
      <point x="1342" y="20"/>
      <point x="1342" y="278" type="curve" smooth="yes"/>
      <point x="1342" y="390"/>
      <point x="1286" y="478"/>
      <point x="1168" y="536" type="curve" smooth="no"/>
      <point x="1264" y="570"/>
      <point x="1312" y="646"/>
      <point x="1312" y="748" type="curve" smooth="yes"/>
      <point x="1312" y="988"/>
      <point x="1090" y="1084"/>
      <point x="852" y="1084" type="curve" smooth="yes"/>
      <point x="656" y="1084"/>
      <point x="408" y="1000"/>
      <point x="408" y="748" type="curve" smooth="yes"/>
      <point x="408" y="646"/>
      <point x="452" y="570"/>
      <point x="540" y="528" type="curve" smooth="no"/>
      <point x="426" y="470"/>
      <point x="384" y="388"/>
    </contour>
    <contour>
      <point x="746" y="308" type="curve" smooth="no"/>
      <point x="746" y="378"/>
      <point x="790" y="436"/>
      <point x="858" y="436" type="curve" smooth="yes"/>
      <point x="932" y="436"/>
      <point x="968" y="384"/>
      <point x="968" y="304" type="curve" smooth="yes"/>
      <point x="968" y="234"/>
      <point x="930" y="192"/>
      <point x="860" y="192" type="curve" smooth="yes"/>
      <point x="790" y="192"/>
      <point x="754" y="238"/>
    </contour>
    <contour>
      <point x="764" y="736" type="curve" smooth="yes"/>
      <point x="764" y="780"/>
      <point x="792" y="850"/>
      <point x="856" y="850" type="curve" smooth="yes"/>
      <point x="932" y="850"/>
      <point x="952" y="798"/>
      <point x="952" y="736" type="curve" smooth="yes"/>
      <point x="952" y="680"/>
      <point x="932" y="620"/>
      <point x="860" y="620" type="curve" smooth="yes"/>
      <point x="784" y="620"/>
      <point x="764" y="678"/>
    </contour>
  </outline>
</glyph>
